<svg xmlns="http://www.w3.org/2000/svg" xmlns:xlink="http://www.w3.org/1999/xlink" viewBox="0 0 839.451 634.74">
  <defs>
    <style>
      .cls-1, .cls-11, .cls-12 {
        fill: #6c63ff;
      }

      .cls-1, .cls-13, .cls-22, .cls-24 {
        opacity: 0.1;
      }

      .cls-2 {
        fill: #86d5d8;
      }

      .cls-3 {
        fill: #444053;
      }

      .cls-4 {
        fill: none;
        stroke: #444053;
        stroke-miterlimit: 10;
      }

      .cls-5 {
        fill: #f2f2f2;
        opacity: 0.68;
      }

      .cls-6 {
        fill: url(#linear-gradient);
      }

      .cls-7 {
        fill: #fff;
      }

      .cls-10, .cls-24, .cls-8, .cls-9 {
        fill: #5a5773;
      }

      .cls-8 {
        opacity: 0.04;
      }

      .cls-10, .cls-11 {
        opacity: 0.2;
      }

      .cls-14 {
        fill: #ffd037;
      }

      .cls-15 {
        fill: #65617d;
      }

      .cls-16 {
        fill: #9d9cb5;
      }

      .cls-17 {
        fill: #fbbebe;
      }

      .cls-18 {
        fill: #e7effd;
      }

      .cls-19 {
        fill: #3f3d56;
      }

      .cls-20 {
        fill: #5f5d7e;
      }

      .cls-21 {
        fill: #7c5c5c;
      }

      .cls-23 {
        fill: #e6e8ec;
      }

      .cls-25 {
        fill: #f97b7b;
      }

      .cls-26 {
        fill: #40e1dc;
      }

      .cls-27 {
        fill: url(#linear-gradient-3);
      }

      .cls-28 {
        fill: #2d293d;
      }

      .cls-29 {
        fill: #575988;
      }

      .cls-30, .cls-31 {
        opacity: 0.05;
      }

      .cls-32 {
        fill: #ffcdd3;
      }

      .cls-33 {
        fill: #dce6f2;
      }

      .cls-34 {
        fill: #656891;
      }

      .cls-35 {
        fill: #656691;
      }
    </style>
    <linearGradient id="linear-gradient" x1="0.5" y1="1" x2="0.5" gradientUnits="objectBoundingBox">
      <stop offset="0" stop-color="gray" stop-opacity="0.251"/>
      <stop offset="0.54" stop-color="gray" stop-opacity="0.122"/>
      <stop offset="1" stop-color="gray" stop-opacity="0.102"/>
    </linearGradient>
    <linearGradient id="linear-gradient-3" x1="3.499" y1="1.031" x2="3.499" y2="0.019" xlink:href="#linear-gradient"/>
  </defs>
  <g id="Group_175" data-name="Group 175" transform="translate(2607 306)">
    <ellipse id="Ellipse_5" data-name="Ellipse 5" class="cls-1" cx="73.516" cy="18.16" rx="73.516" ry="18.16" transform="translate(-1928.726 289.395)"/>
    <ellipse id="Ellipse_6" data-name="Ellipse 6" class="cls-1" cx="73.516" cy="18.16" rx="73.516" ry="18.16" transform="translate(-2577.678 292.42)"/>
    <path id="Path_245" data-name="Path 245" class="cls-2" d="M642.387,192.178s-10.332-4.193-43.187,10.883-36.982,13.152-45.471,10.846-13.218-2.849-22.368-15.421c0,0-6.433-34.867-12.653-40.272s-32.679,3.077-32.679,3.077-31.717,7.277-37.76-35.109c0,0,4.289-31.952-1.549-41.755,0,0,11.75,5.089,31.239-3.121s35.021,8.812,35.021,8.812,4.905,12.7,4.406,20.275,2.592,10.413,11.874,6.756c0,0,4.553-6.484-1.9-17.2s-11.059-18.7-9.253-27.024S525.082,53.1,541.723,47.3s39.244-6.888,50.1-11.4S605.3,28.44,605.3,28.44s-6.69,6.712,9.062,35.065,5.706,40.668,5.706,40.668-8.372,19.945-45.309,18.359c0,0-35.594,1.3-16.156,16.4,0,0,12.432-2.533,31.012-8.438s32,18.469,35.322,35.432S642.387,192.178,642.387,192.178Z" transform="translate(-2762.549 -321.114)"/>
    <path id="Path_248" data-name="Path 248" class="cls-3" d="M548.634,179.88l.213.367c-19.9,24.843-21.215,63.418-21.3,63.756l-4.2-4.847C523.438,238.819,528.593,204.892,548.634,179.88Z" transform="translate(-2766.906 -366.344)"/>
    <path id="Path_250" data-name="Path 250" class="cls-4" d="M673.3,242.815s-11.838-7.96-10.442-17.235" transform="translate(-2803.936 -378.484)"/>
    <path id="Path_251" data-name="Path 251" class="cls-4" d="M645.7,252.139S628.814,246,627.11,221.95" transform="translate(-2794.47 -377.52)"/>
    <path id="Path_252" data-name="Path 252" class="cls-4" d="M611,258.223s-16.156-13.4-10.788-36.813" transform="translate(-2787.035 -377.376)"/>
    <path id="Path_253" data-name="Path 253" class="cls-4" d="M568.815,249.154s-10.758-22.552-1.19-37.224" transform="translate(-2777.615 -374.858)"/>
    <path id="Path_254" data-name="Path 254" class="cls-4" d="M678.512,212.82s-12.227,3.877-9.6,10.281" transform="translate(-2805.475 -375.094)"/>
    <path id="Path_255" data-name="Path 255" class="cls-4" d="M655.943,182.61s-16.354,5.19-16.743,28.324" transform="translate(-2797.682 -367.069)"/>
    <path id="Path_256" data-name="Path 256" class="cls-4" d="M625.993,175.34S611.115,193.7,612.209,210.4" transform="translate(-2790.496 -365.138)"/>
    <path id="Path_257" data-name="Path 257" class="cls-4" d="M590.755,185.15s-14.782,14.129-12.9,21.994" transform="translate(-2781.342 -367.744)"/>
    <path id="Path_258" data-name="Path 258" class="cls-4" d="M577.623,177.6s-13.865,2.489-15.8-2.064" transform="translate(-2777.126 -365.191)"/>
    <path id="Path_267" data-name="Path 267" class="cls-4" d="M478.52,199.259s22.427,1.924,32.774-9.649" transform="translate(-2754.997 -368.929)"/>
    <path id="Path_272" data-name="Path 272" class="cls-5" d="M465.116,119.463c-52.433,8.746-104.946,4.039-155.5-2.482s-100.988-14.849-153.53-13.218c-33.78,1.057-71.357,7.7-94.731,28.067-22.486,19.6-25.7,46.4-25.489,70.63.162,18.227,1.873,37.107,14.217,51.764,8.57,10.171,21.671,17.558,31.577,26.965,34.514,32.737,24.726,83.452,2.871,126.4C74.25,427.74,61.685,447.516,54.79,468.173s-7.579,42.908,5.4,60.011c12.88,16.956,37.518,26.723,63.154,31.959,52.058,10.626,109.837,5.14,165.721-2.489,123.694-16.971,246.007-44.421,367.968-71.819,45.141-10.134,90.479-20.327,133.909-35.249,24.116-8.269,48.651-18.674,64.094-35.131,19.6-20.892,19.776-49.73.411-67.222-32.488-29.374-105.166-23.852-130.42-57.279-13.909-18.359-8.247-43.048,2.379-64.748,22.765-46.558,67.377-92.271,60.951-139.056-4.4-32.141-35.523-59.05-76.867-66.486-43.327-7.791-98.7,5.221-123.209,37.173C563.049,90.824,511.409,111.753,465.116,119.463Z" transform="translate(-2637.403 -324.463)"/>
    <rect id="Rectangle_108" data-name="Rectangle 108" class="cls-6" width="697.874" height="395.322" rx="12.49" transform="translate(-2550.977 -194.711)"/>
    <rect id="Rectangle_109" data-name="Rectangle 109" class="cls-7" width="695.737" height="388.449" rx="12.49" transform="translate(-2549.868 -189.152)"/>
    <rect id="Rectangle_110" data-name="Rectangle 110" class="cls-7" width="695.737" height="388.449" rx="12.49" transform="translate(-2549.868 -189.152)"/>
    <rect id="Rectangle_111" data-name="Rectangle 111" class="cls-8" width="695.737" height="388.449" rx="12.49" transform="translate(-2549.868 -189.152)"/>
    <path id="Path_273" data-name="Path 273" class="cls-9" d="M798.425,170.15h-688.7a3.532,3.532,0,0,0-3.532,3.532v14.937H801.928V173.712a3.532,3.532,0,0,0-3.5-3.562Z" transform="translate(-2656.087 -363.759)"/>
    <g id="buttons" transform="translate(-2540.747 -189.152)">
      <circle id="Ellipse_7" data-name="Ellipse 7" class="cls-7" cx="4.773" cy="4.773" r="4.773" transform="translate(0 0)"/>
      <circle id="Ellipse_8" data-name="Ellipse 8" class="cls-7" cx="4.773" cy="4.773" r="4.773" transform="translate(12.851 0)"/>
      <circle id="Ellipse_9" data-name="Ellipse 9" class="cls-7" cx="4.773" cy="4.773" r="4.773" transform="translate(25.702 0)"/>
    </g>
    <rect id="Rectangle_112" data-name="Rectangle 112" class="cls-7" width="580.136" height="288.438" rx="10.19" transform="translate(-2503.295 -89.148)"/>
    <rect id="Rectangle_113" data-name="Rectangle 113" class="cls-10" width="166.874" height="17.514" rx="3.86" transform="translate(-2527.896 -155.54)"/>
    <rect id="Rectangle_114" data-name="Rectangle 114" class="cls-11" width="166.874" height="17.514" rx="3.86" transform="translate(-2213.227 -55.669)"/>
    <rect id="Rectangle_115" data-name="Rectangle 115" class="cls-11" width="260.569" height="17.514" rx="3.86" transform="translate(-2213.227 -6.629)"/>
    <rect id="Rectangle_116" data-name="Rectangle 116" class="cls-11" width="260.569" height="17.514" rx="3.86" transform="translate(-2213.227 22.011)"/>
    <rect id="Rectangle_117" data-name="Rectangle 117" class="cls-11" width="260.569" height="17.514" rx="3.86" transform="translate(-2213.227 50.65)"/>
    <rect id="Rectangle_118" data-name="Rectangle 118" class="cls-11" width="260.569" height="17.514" rx="3.86" transform="translate(-2213.227 79.29)"/>
    <rect id="Rectangle_119" data-name="Rectangle 119" class="cls-11" width="519.185" height="17.514" rx="3.86" transform="translate(-2471.843 110.867)"/>
    <rect id="Rectangle_120" data-name="Rectangle 120" class="cls-11" width="519.185" height="17.514" rx="3.86" transform="translate(-2471.843 139.507)"/>
    <rect id="Rectangle_121" data-name="Rectangle 121" class="cls-11" width="519.185" height="17.514" rx="3.86" transform="translate(-2471.843 168.146)"/>
    <path id="Path_274" data-name="Path 274" class="cls-12" d="M753.4,678.54s4.355,5.691-2.012,14.291-11.61,15.855-9.488,21.215c0,0,9.6-15.965,17.419-16.156S762,688.138,753.4,678.54Z" transform="translate(-2824.836 -498.813)"/>
    <path id="Path_275" data-name="Path 275" class="cls-13" d="M753.485,678.54a7.052,7.052,0,0,1,.889,1.785c7.63,8.959,11.691,17.323,4.362,17.529-6.829.2-15.025,12.411-16.985,15.487a5.651,5.651,0,0,0,.235.734s9.6-15.965,17.419-16.156S762.084,688.138,753.485,678.54Z" transform="translate(-2824.924 -498.813)"/>
    <path id="Path_276" data-name="Path 276" class="cls-14" d="M768.389,687.957c0,2-.22,3.628-.5,3.628s-.5-1.623-.5-3.628.279-1.057.558-1.057S768.389,685.952,768.389,687.957Z" transform="translate(-2831.735 -500.974)"/>
    <path id="Path_277" data-name="Path 277" class="cls-14" d="M771.3,691.169c-1.762.955-3.3,1.535-3.429,1.292s1.19-1.219,2.937-2.2,1.065-.264,1.2,0S773.051,690.207,771.3,691.169Z" transform="translate(-2831.86 -501.793)"/>
    <path id="Path_278" data-name="Path 278" class="cls-12" d="M722.875,678.54s-4.355,5.691,2,14.291,11.617,15.855,9.5,21.215c0,0-9.6-15.965-17.419-16.156S714.276,688.138,722.875,678.54Z" transform="translate(-2817.314 -498.813)"/>
    <path id="Path_279" data-name="Path 279" class="cls-13" d="M722.875,678.54a6.9,6.9,0,0,0-.9,1.784c-7.622,8.959-11.683,17.323-4.355,17.529,6.829.2,15.017,12.411,16.978,15.487a5.639,5.639,0,0,1-.228.734s-9.6-15.965-17.419-16.156S714.276,688.138,722.875,678.54Z" transform="translate(-2817.314 -498.813)"/>
    <path id="Path_280" data-name="Path 280" class="cls-14" d="M715.38,687.959c0,2,.228,3.628.507,3.628s.5-1.623.5-3.628-.279-1.043-.551-1.043S715.38,685.955,715.38,687.959Z" transform="translate(-2817.919 -500.977)"/>
    <path id="Path_281" data-name="Path 281" class="cls-14" d="M711.215,691.169c1.762.955,3.3,1.535,3.429,1.292s-1.19-1.219-2.937-2.2-1.065-.264-1.2,0S709.452,690.207,711.215,691.169Z" transform="translate(-2816.529 -501.793)"/>
    <ellipse id="Ellipse_10" data-name="Ellipse 10" class="cls-1" cx="45.53" cy="6.984" rx="45.53" ry="6.984" transform="translate(-2128.469 244.82)"/>
    <path id="Path_282" data-name="Path 282" class="cls-15" d="M757.035,715.486l-.22,1.777-.3,2.511-.132,1.05-.3,2.511-.132,1.05-.308,2.5-3.481,28.566c-.316,2.548-4.479,4.538-9.547,4.538h-18.08c-5.03,0-9.187-1.99-9.5-4.538l-3.5-28.544-.3-2.5-.132-1.05-.308-2.511-.125-1.05-.308-2.512-.22-1.777c-.169-1.469,2.086-2.658,4.927-2.658H752.1C754.942,712.828,757.2,714.04,757.035,715.486Z" transform="translate(-2816.526 -507.928)"/>
    <path id="Path_283" data-name="Path 283" class="cls-16" d="M728.453,700.32l-.3,2.512H682.328l-.308-2.512Z" transform="translate(-2788.179 -490.984)"/>
    <path id="Path_284" data-name="Path 284" class="cls-16" d="M728.176,705.16l-.3,2.511H682.918l-.308-2.511Z" transform="translate(-2788.336 -492.27)"/>
    <path id="Path_285" data-name="Path 285" class="cls-16" d="M727.9,710.01l-.308,2.511H683.511l-.3-2.511Z" transform="translate(-2788.495 -493.558)"/>
    <rect id="Rectangle_122" data-name="Rectangle 122" class="cls-11" width="221.774" height="162.688" rx="8.5" transform="translate(-2467.315 -64.479)"/>
    <path id="Path_286" data-name="Path 286" class="cls-6" d="M1102.93,558.711c.279-.734-1.792-4.935-1.792-5.14s-2.137-2.534-2.137-3.833-2.827-4.112-2.827-4.112-3.8-1.572-4.208-5-4.546-3.488-4.553-3.488h0v-.786a10.808,10.808,0,0,0-.507-4,4.032,4.032,0,0,0-2.342-1.99s-.419-2.673-1.241-3.5a3.929,3.929,0,0,1-.969-3.672c.419-1.292-.551-4.582-2.548-5.067s-4.281-1.234-4.281-1.234l-.551.1-.272-.1a11.431,11.431,0,0,1-1.469.184,1.814,1.814,0,0,1-1.168-.382c-.69-.734-6.279-2.2-7.344-2.2a16.791,16.791,0,0,1-4-1.373s-2.071-1.572-2.937-2.262a19.277,19.277,0,0,1-2.6-3.576v-.051h0a12.67,12.67,0,0,1-.624-1.8h0a16.2,16.2,0,0,0,2.563-3.532c.073-.132.14-.264.206-.4a1.537,1.537,0,0,0,.448-.066l.183-.073a2.982,2.982,0,0,0,1.469-1.748h0a4.636,4.636,0,0,0,.132-.455V499l.066-.308a1.46,1.46,0,0,1,0-.176l.044-.308v-.176a1.018,1.018,0,0,1,.051-.389h0a13.728,13.728,0,0,1,.213-1.469h0c.411-1.858,1.535-3.429,2.321-5.14h0c.11-.242.22-.492.316-.734s.191-.551.272-.83l.066-.257c.051-.206.1-.411.14-.617s0-.184.051-.279q.066-.419.11-.859a10.62,10.62,0,0,0-.734-4.81c-.514-1.285-1.285-2.445-1.806-3.731-.793-1.946-1.006-4.156-1.968-6.014a7.16,7.16,0,0,0-8.592-3.5c-1.469.558-2.805,1.638-4.325,2.122-2.042.654-4.215.162-6.33-.125s-4.406-.323-6.139,1.057c-1.953,1.586-2.482,4.568-4.318,6.308-.734.734-1.726,1.2-2.541,1.873a4.151,4.151,0,0,0-1.278,1.748l-.044.14a1.358,1.358,0,0,0-.044.184,1.684,1.684,0,0,0-.037.206.813.813,0,0,0,0,.14,1.538,1.538,0,0,0,0,.367h0a2.786,2.786,0,0,0,.051.345v.1a.856.856,0,0,0,.088.286c.037.1,0,.037,0,.051s.081.213.125.316l.066.154a.122.122,0,0,0,.059.125,9.134,9.134,0,0,1,.639,1.594,1.771,1.771,0,0,1-.066,1.05,3.1,3.1,0,0,1-.734,1.006,14.208,14.208,0,0,0-3.114,4.986q-.125.323-.22.639h.1a4.164,4.164,0,0,0,.6.125,2.936,2.936,0,0,0,.345,0,5.377,5.377,0,0,0,1.41-.1l.353-.088a7.994,7.994,0,0,0,1.4-.507v.654a16.287,16.287,0,0,0,9.054,14.57,3.049,3.049,0,0,0,.059.441l.044.375-.184-.176s-1.241-.617-2.416,1.16a7.8,7.8,0,0,1-3.378,2.607s-12.557,1.983-13.042,3.628l-5.875.345s-2.071.272-2.276,4.59-1.307,4.722-1.307,4.722-2.416,4.252-2.2,6.44a3.591,3.591,0,0,1-1.865,3.29l-.272,3.907a2.694,2.694,0,0,0-2.937,2.328,9.289,9.289,0,0,1-1.718,3.9s-3.8,3.158-4,5.823l-2.35,1.469s-5.449-1.234-6.69-3.422c0,0-.147-.147-.382-.36v-.051h0a22.109,22.109,0,0,0-2.276-2,1.651,1.651,0,0,1,.11,1.1l-.4-.448-1.087-1.2s-8.812-8.254-13.953-8.908h0c-.066-.132-.4-1.469-1.285-.624a7.2,7.2,0,0,0-.052,10.553l8.254,7.7.213.154,1.77,2.276a20.662,20.662,0,0,0-.734,2.042v.066l-.132.4a.882.882,0,0,0-.037.132c-.044.132-.081.257-.117.382l-.066.22v.132c-.2.69-.323,1.219-.382,1.513l-.463-.147.448.2v.213l.426.184c2.416,1.05,14.474,6.345,15.091,7.145s5.243,3.5,9.385,1.3a9.882,9.882,0,0,0,5.03-5.544s4-5.552,4.142-6.374,3.239-1.777,3.239-1.777.279,9.172-1.307,12.535-4.553,18.219-4.553,18.219a2.1,2.1,0,0,1,.587,0l-.176.859a2,2,0,0,1,.734,0c-.22,1.689-1.469,9.547-1.469,9.547a19.557,19.557,0,0,1-1.1,4.8c-.69,1.234-.734,7.674-.734,7.674l-1.109,4.656s.147.323.419.8h0a11.918,11.918,0,0,0,3.172,4.1,8.12,8.12,0,0,1-.558,2.13,7.49,7.49,0,0,0-.551,3.29s-1.168,5.273-1.035,6.778a25.906,25.906,0,0,1-.734,5.207l-1.241,11.918s-.823,10.34-.411,13.152a25.243,25.243,0,0,1-.279,6.609s.83,8.151.624,9.04-1.241,4.729-.624,6.852.279,7.946.279,7.946.411,7.674.9,10.141a17.357,17.357,0,0,1-.14,5.618,46.278,46.278,0,0,1-.69,5.273c-.206,0-2,3.628,1.652,7.189s1.388,3.011,1.388,3.011-2.937-1.469-2.556,1.513c.323,2.8.778,2.071.823,1.99l-.69,2.254.485.066-.4.477a10.322,10.322,0,0,1-1.4,1.469,2.989,2.989,0,0,0-.9,1.983s-5.1,5.552-9.862,8.357c-2.5,1.469-4.663,2.724-5.6,3.767-.852.925-.734,1.674,1.05,2.262,3.723,1.234,10.281,1.851,14.966.272a17.506,17.506,0,0,0,7.343-4.722,10.393,10.393,0,0,1,5.875-.962c2.937.551,8.7-3.216,8.7-3.216l-.11-.969-.3-2.8a2.2,2.2,0,0,1-.485-1.7,8.809,8.809,0,0,0-.242-2.467c-.052-.272-.1-.543-.154-.793l.529-.1s-.683-3.488.558-4.178.889-9.657.889-9.657a10.832,10.832,0,0,0-2.409-2.394c-.83-.338-.073-4.6.074-5.14s1.241-11.169,1.241-11.169-.419-3.349.132-4.788-.69-6.991-.69-6.991a1.278,1.278,0,0,1,.345-1.5c.734-.822.485-8.151.485-8.151s-.066-3.672-.066-4.663a16.537,16.537,0,0,1,1.586-5.61c.764-1.16.272-4.8.272-4.8h0l.044-.272a1.021,1.021,0,0,1,.059-.389l.059-.367a53.392,53.392,0,0,1,1.351-5.948c.9-2.871,1.931-7.938,1.931-7.938l6.411-16.728.073-.2s2.937,5.478,2.937,10.553a66.593,66.593,0,0,1,.558,7.74c-.176,1.645.477,9.378.477,9.378s.9,11.1.9,11.573,1.109,9.04,1.8,10.347-.69,5.273-1.109,5.684.14,10.479.14,10.479-1.036,7.946-1.241,9.591-1.035,7.946-.345,10.413.411,2.8.411,2.8,2.489,2.541,1.035,2.746a3.8,3.8,0,0,0-2.761,4.994,65.8,65.8,0,0,0,3.04,7.343l1.146-.242v.815l.081,4.083s.485,3.9.206,4.8a53.2,53.2,0,0,0-.609,5.324c-.051.587-.081.977-.081.977s0,3.628,7.659,2.534,9.032-4.112,9.032-4.112l.059-.375c.11-.69.36-2.159.565-2.981.272-1.094-2.2-6.029-2.2-6.029s-.411-3.356-1.1-4.1a3.669,3.669,0,0,1-.558-1.469c-.059-.279-.118-.565-.161-.845a5.018,5.018,0,0,1,.514.088s-.419-2.394,1.175-3.15a2.256,2.256,0,0,0,.962-3.011c-.206-.683.617-4.523.617-4.523a2.2,2.2,0,0,1,.551-2.2c.969-.962,1.726-7.674,1.726-7.674l.14-25.893s.485-4.59-.066-6.44-1.1-5.412-.345-6.374.066-5.4.066-5.4,0-9.385,1.035-11.75.69-17.059.69-17.059l.272-9.657s2.255-2.13,1.726-13.218c2.4-.154,5.141-.242,5.522.1.734.617,5.654,3.767,8.555,1.777a38.406,38.406,0,0,0,3.444-2.666l-1.219-20.562,1.219,1.9c0-2.871,8.144-12.19,8.144-12.19s7.586-9.8,9.238-10.956,4.9-7.343,4.9-7.343a29.792,29.792,0,0,1,1.66-3.422C1105.14,562.75,1102.66,559.46,1102.93,558.711Zm-17.793,7.189c-2.071.206-6.418,4.935-6.484,5.963a4.228,4.228,0,0,1-.918,1.836c0-.411-.066-.83-.1-1.256-.485-6.058-1.013-13.431-.734-14.143.411-1.234.272-6.785.272-6.785h0l.081-.11c1.388,4.3,5.706,9.37,5.706,9.37s.734,2.2,1.66,2.255.51,2.87.51,2.87Z" transform="translate(-2883.747 -443.159)"/>
    <path id="Path_287" data-name="Path 287" class="cls-15" d="M978.65,594.028s2.519-13.218,10.6-13.218l5.919,12.168-3.943,2.717S982.66,595.93,978.65,594.028Z" transform="translate(-2887.857 -472.851)"/>
    <path id="Path_288" data-name="Path 288" class="cls-13" d="M995.173,592.934l-3.943,2.717a46.689,46.689,0,0,1-10.34-.867,11.921,11.921,0,0,1-2.24-.734l.044-.213v-.044a29.37,29.37,0,0,1,1.527-4.847q.375-.892.837-1.814a12.3,12.3,0,0,1,5.14-5.618,6.966,6.966,0,0,1,2.7-.734h.36l.132.272,2,4.112Z" transform="translate(-2887.857 -472.843)"/>
    <path id="Path_289" data-name="Path 289" class="cls-15" d="M1090.37,658.294s8.5-.815,9.245-.2,5.574,3.738,8.423,1.762.955-8.812.955-9.106-.272-9.994-.272-9.994l-5.1-6.866-6.389-12.029-13.057-1.292.338,19.093-.066,9.789Z" transform="translate(-2915.891 -483.413)"/>
    <path id="Path_290" data-name="Path 290" class="cls-13" d="M1090.37,658.294s8.5-.815,9.245-.2,5.574,3.738,8.423,1.762.955-8.812.955-9.106-.272-9.994-.272-9.994l-5.1-6.866-6.389-12.029-13.057-1.292.338,19.093-.066,9.789Z" transform="translate(-2915.891 -483.413)"/>
    <path id="Path_291" data-name="Path 291" class="cls-17" d="M983.76,575.773s-.683,8.291-5.875,8.43c0,0-1.469-.881-3.437-2.357-4.538-3.4-11.75-9.928-9.752-16,2.857-8.7,16.721,7.343,16.721,7.343l1.072,1.2Z" transform="translate(-2884.059 -468.188)"/>
    <path id="Path_292" data-name="Path 292" class="cls-13" d="M987.252,579.787s-.683,8.291-5.875,8.43c0,0-1.469-.881-3.437-2.357l-.441-.565a6.763,6.763,0,0,0,2.835.734,3.826,3.826,0,0,0,3.672-2.328,29.328,29.328,0,0,0,1.469-3.3A10.261,10.261,0,0,0,986,578.37Z" transform="translate(-2887.551 -472.203)"/>
    <path id="Path_293" data-name="Path 293" class="cls-18" d="M985.164,594.571,984,593.1l-3.914-5.038-1.99-2.578a6.706,6.706,0,0,0,2.827.734,3.8,3.8,0,0,0,3.672-2.328,28.767,28.767,0,0,0,1.432-3.29c.646-1.836.631-2.776.4-3.1a18.135,18.135,0,0,1,2.247,2h0l.375.353.14.279,2.049,3.965a1.049,1.049,0,0,1,0,.169C991.392,585.516,992.053,593.44,985.164,594.571Z" transform="translate(-2887.71 -471.961)"/>
    <path id="Path_294" data-name="Path 294" class="cls-15" d="M1029.49,835.052s-5.713,3.745-8.57,3.194a10.282,10.282,0,0,0-5.779.955,17.152,17.152,0,0,1-7.2,4.692c-4.626,1.564-11.081.947-14.753-.272-1.733-.58-1.873-1.329-1.035-2.247a31.348,31.348,0,0,1,5.522-3.738c4.693-2.791,9.723-8.291,9.723-8.291a2.938,2.938,0,0,1,.881-1.975,10.128,10.128,0,0,0,1.373-1.469c.734-.859,1.417-1.762,1.417-1.762l16.824.632s.286,1.212.514,2.453a8.874,8.874,0,0,1,.235,2.445,2.2,2.2,0,0,0,.477,1.7l.3,2.776Z" transform="translate(-2891.311 -537.492)"/>
    <path id="Path_295" data-name="Path 295" class="cls-15" d="M1084.83,840.248c-.2.815-.448,2.269-.558,2.937a1.238,1.238,0,0,1-.052.375s-1.358,2.989-8.907,4.076-7.542-2.511-7.542-2.511l.073-.977c.132-1.586.4-4.634.6-5.28.272-.881-.2-4.759-.2-4.759l-.081-4.054-.059-2.813,12.484-1.292a24.138,24.138,0,0,0,.4,2.783,3.575,3.575,0,0,0,.551,1.469c.676.734,1.087,4.076,1.087,4.076S1085.12,839.161,1084.83,840.248Z" transform="translate(-2911.531 -537.973)"/>
    <path id="Path_296" data-name="Path 296" class="cls-13" d="M1034.38,824.8s.286,1.212.514,2.453c-1.814.331-9.745,1.7-11.75.734-2.247-1.087-7.072-1.7-7.072-1.7l.081-.279c.734-.859,1.417-1.762,1.417-1.762Z" transform="translate(-2897.797 -537.521)"/>
    <path id="Path_297" data-name="Path 297" class="cls-13" d="M1081.17,828.763c-3.165-.536-10.119.734-12.851,1.322l-.059-2.813,12.484-1.292a24.141,24.141,0,0,0,.426,2.783Z" transform="translate(-2911.662 -537.981)"/>
    <path id="Path_298" data-name="Path 298" class="cls-19" d="M1073.92,674.516l-.264,9.547s.338,14.614-.683,16.89-1.021,11.625-1.021,11.625.683,4.406-.066,5.368-.206,4.487.338,6.323.066,6.389.066,6.389l-.132,25.7s-.734,6.661-1.7,7.615a2.239,2.239,0,0,0-.543,2.2s-.815,3.8-.609,4.487a2.256,2.256,0,0,1-.947,2.989c-1.557.749-1.16,3.128-1.16,3.128-3.738-.889-14.342,1.469-14.342,1.469a65.07,65.07,0,0,1-3-7.277,3.768,3.768,0,0,1,2.725-4.964c1.424-.2-1.021-2.717-1.021-2.717s.272-.338-.411-2.791.139-8.7.345-10.332,1.219-9.547,1.219-9.547-.543-9.995-.132-10.4,1.762-4.355,1.087-5.64-1.77-9.789-1.77-10.281-.881-11.493-.881-11.493-.815-7.681-.609-9.312a59.994,59.994,0,0,0-.551-7.681c0-5.03-2.937-10.472-2.937-10.472l-.073.2-6.315,16.714s-1.021,5.03-1.9,7.887a51.8,51.8,0,0,0-1.329,5.875l-.059.367-.059.382-.044.272h0s.47,3.6-.279,4.759a16.97,16.97,0,0,0-1.557,5.574c0,.955.066,4.626.066,4.626s.272,7.27-.477,8.078a1.27,1.27,0,0,0-.338,1.469s1.219,5.508.676,6.932-.132,4.759-.132,4.759-1.087,10.538-1.227,11.081-.881,4.759-.066,5.1a10.884,10.884,0,0,1,2.379,2.379s.338,8.908-.881,9.583-.551,4.149-.551,4.149-9.855,1.9-12.095.815-7.072-1.7-7.072-1.7l.676-2.2c-.044.081-.492.808-.808-1.975-.345-2.937,2.511-1.469,2.511-1.469s2.247.543-1.359-2.989-1.836-7.138-1.63-7.138a45.565,45.565,0,0,0,.676-5.236,17.308,17.308,0,0,0,.14-5.574c-.477-2.445-.881-10.061-.881-10.061s.338-5.779-.279-7.887.411-5.875.617-6.8-.617-8.974-.617-8.974a25.165,25.165,0,0,0,.279-6.609c-.411-2.791.4-13.057.4-13.057l1.226-11.823a24.438,24.438,0,0,0,.734-5.14c-.147-1.469,1.021-6.727,1.021-6.727a7.459,7.459,0,0,1,.543-3.268c.683-1.359.955-5.875.955-5.875l6.528-14.951,3.194-13.218,43.165-.411s.154,1.146.419,3.224.631,5.14,1.043,8.952c.374,3.451.786,7.512,1.19,12.029C1076.65,671.931,1073.92,674.516,1073.92,674.516Z" transform="translate(-2897.344 -486.784)"/>
    <path id="Path_299" data-name="Path 299" class="cls-17" d="M1081.7,523.344,1071.65,534.1s-12.91-5.14-11.551-6.94c.521-.683.441-2.842.14-5.221-.477-3.767-1.469-8.078-1.469-8.078s22.567-3.672,20.657.132a6.257,6.257,0,0,0-.139,4.516,17.1,17.1,0,0,0,2.416,4.832Z" transform="translate(-2909.141 -454.644)"/>
    <path id="Path_300" data-name="Path 300" class="cls-13" d="M1079.4,513.946c-.69,1.4-1.021,1.527-.588,3.026-2.937,3.165-6.7,6.609-11.375,6.609a16.1,16.1,0,0,1-7.2-1.689c-.477-3.767-1.469-8.078-1.469-8.078S1081.31,510.142,1079.4,513.946Z" transform="translate(-2909.141 -454.63)"/>
    <path id="Path_301" data-name="Path 301" class="cls-17" d="M1080.9,499.235a16.182,16.182,0,0,1-32.363,0V499a16.178,16.178,0,1,1,32.355.235Z" transform="translate(-2906.423 -446.852)"/>
    <path id="Path_302" data-name="Path 302" class="cls-13" d="M1079.34,647.247c-2.144,0-9.282.073-17.257.206h-.1l-2.636.044h-.081c-9.458.147-18.777-1.7-22.522-1.351-7.953.734,2.857-7.343,2.857-7.343a66.7,66.7,0,0,0,18.116,1.828l2.291-.117c7.226-.411,14.489-1.087,18.285-2.2C1078.56,640.4,1078.93,643.45,1079.34,647.247Z" transform="translate(-2902.513 -488.126)"/>
    <path id="Path_303" data-name="Path 303" class="cls-20" d="M1079.34,646.69c-2.144,0-9.282.081-17.257.206h-.1l-2.636.044h-.081c-9.458.154-18.777-1.7-22.522-1.344-7.953.734,2.857-7.344,2.857-7.344a66.362,66.362,0,0,0,18.116,1.829l2.291-.117c7.226-.4,14.489-1.087,18.285-2.2C1078.56,639.838,1078.93,642.893,1079.34,646.69Z" transform="translate(-2902.513 -487.98)"/>
    <path id="Path_304" data-name="Path 304" class="cls-13" d="M1056.64,532.591l-12.484,5.875L1034.5,613.1s5.713-2.585,8.974-.955,13.321.14,13.321.14,7.343-.411,8.43.411,13.872-3.4,13.872-3.4,2.313-5.141.543-5.985.543-8.812.543-8.812l-1.087-53.843-2.2-6.932-5.875-3.54-5.978,4.759-2.857.411Z" transform="translate(-2902.693 -459.404)"/>
    <path id="Path_305" data-name="Path 305" class="cls-18" d="M1056.63,531.484l-12.484,5.875-9.679,74.647s5.713-2.585,8.974-.955,13.321.14,13.321.14,7.344-.411,8.43.4,13.872-3.393,13.872-3.393,2.313-5.14.543-5.985.543-8.812.543-8.812l-1.087-53.842-2.2-6.932-5.875-3.54-5.978,4.759-2.857.411Z" transform="translate(-2902.685 -459.112)"/>
    <path id="Path_306" data-name="Path 306" class="cls-13" d="M1060.84,536.685s3.606,4.281,3.539,5.14-.206,3-.206,3l-2.717,5.5s-1.469,6.866-1.469,8.3-2.379,13.8-2.379,13.8l-2.915,19.056-3.606,24.968,3.672,6.323,4.355-3.672,5.779-44.457,1.219-8.768s1.292-15.774,1.292-17.4a55.407,55.407,0,0,0-.734-5.912s.889-4.083,4.56-5.03-.279-.206-.279-.206l-2.1-1.7-1.836.734S1061.93,534.783,1060.84,536.685Z" transform="translate(-2907.1 -460.846)"/>
    <path id="Path_307" data-name="Path 307" class="cls-12" d="M1060.31,536.112s3.6,4.281,3.532,5.14-.206,2.989-.206,2.989l-2.717,5.508s-1.469,6.866-1.469,8.291-2.379,13.8-2.379,13.8l-2.849,19.034-3.606,24.968,3.672,6.323,4.347-3.672,5.779-44.458,1.226-8.768s1.292-15.774,1.292-17.4a55.633,55.633,0,0,0-.734-5.919s.881-4.076,4.553-5.03-.272-.2-.272-.2l-2.108-1.7-1.836.734S1061.4,534.21,1060.31,536.112Z" transform="translate(-2906.976 -460.684)"/>
    <path id="Path_308" data-name="Path 308" class="cls-13" d="M1059.59,526.79s-.543.411-.683,3.128-2.042,8.812-2.042,8.812,7.072-4.891,10.6-4.347Z" transform="translate(-2908.636 -458.501)"/>
    <path id="Path_309" data-name="Path 309" class="cls-18" d="M1059.59,525.68s-.543.411-.683,3.128-2.042,8.812-2.042,8.812,7.072-4.891,10.6-4.347Z" transform="translate(-2908.636 -458.206)"/>
    <path id="Path_310" data-name="Path 310" class="cls-13" d="M1082.84,523.83l-11.147,9.789s9.378,5.574,10.6,6.932,2.445-13.321,2.445-13.321Z" transform="translate(-2912.573 -457.714)"/>
    <path id="Path_311" data-name="Path 311" class="cls-18" d="M1083.39,522.72l-11.147,9.789s9.385,5.574,10.6,6.932,2.445-13.321,2.445-13.321Z" transform="translate(-2912.719 -457.419)"/>
    <path id="Path_312" data-name="Path 312" class="cls-13" d="M1049.42,526.753s-1.219-.609-2.379,1.16a7.674,7.674,0,0,1-3.327,2.578s-12.374,1.975-12.851,3.606l-5.779.338s-2.042.272-2.2,4.56-1.292,4.685-1.292,4.685-2.379,4.215-2.2,6.389a3.576,3.576,0,0,1-1.836,3.268l8.5,22.089s.272,9.113-1.292,12.44-4.487,18.087-4.487,18.087,1.226-.272,1.153.543-1.469,9.723-1.469,9.723a19.794,19.794,0,0,1-1.087,4.759c-.676,1.226-.734,7.608-.734,7.608l-1.087,4.626s2.578,5.779,6.521,4.964,11.074-16.251,11.074-16.251l4.553-16.655,3.539-16.449,1.021-11.147,1.63-24.682,2.379-16.31S1050.37,527.914,1049.42,526.753Z" transform="translate(-2898.055 -458.464)"/>
    <path id="Path_313" data-name="Path 313" class="cls-15" d="M1048.86,525.643s-1.226-.61-2.379,1.16a7.717,7.717,0,0,1-3.334,2.578s-12.374,1.975-12.851,3.606l-5.772.338s-2.042.272-2.247,4.553-1.292,4.692-1.292,4.692-2.379,4.215-2.2,6.389a3.562,3.562,0,0,1-1.836,3.268l8.526,22.119s.272,9.113-1.292,12.44-4.487,18.087-4.487,18.087,1.226-.272,1.16.543-1.469,9.715-1.469,9.715a19.359,19.359,0,0,1-1.087,4.759c-.683,1.219-.734,7.615-.734,7.615l-1.087,4.626s2.585,5.779,6.528,4.957,11.081-16.244,11.081-16.244l4.553-16.655,3.532-16.449.977-11.191,1.63-24.682,2.379-16.31S1049.81,526.8,1048.86,525.643Z" transform="translate(-2897.906 -458.169)"/>
    <path id="Path_314" data-name="Path 314" class="cls-13" d="M995.027,592.79l-3.943,2.717a46.693,46.693,0,0,1-10.34-.867l-2.2-.977-.441-.191.455.147a9,9,0,0,0,5.441.191c5.581-1.88,4.964-11.089,4.744-13.174a1.929,1.929,0,0,0-.044-.4h0v.051a3.7,3.7,0,0,0,.257.36l.25.264h0l2.041,3.921a1.049,1.049,0,0,1,0,.169Z" transform="translate(-2887.711 -472.7)"/>
    <path id="Path_315" data-name="Path 315" class="cls-15" d="M1008.83,561.14l-1.9.543-.272,3.87a2.632,2.632,0,0,0-2.857,2.313,9.334,9.334,0,0,1-1.7,3.877s-3.738,3.128-3.943,5.779l-2.313,1.425s-5.368-1.226-6.609-3.4c0,0,2.453,17.536-10.6,13.218,0,0,14.614,6.389,15.3,7.277s5.14,3.466,9.245,1.292a9.7,9.7,0,0,0,4.964-5.508s3.943-5.508,4.076-6.323,3.194-1.77,3.194-1.77l5.875-14.136Z" transform="translate(-2887.851 -467.626)"/>
    <path id="Path_316" data-name="Path 316" class="cls-13" d="M1084.25,531.694l1.968-8.974s.888,2.937,1.77,3.606l2.937,2.2a17.247,17.247,0,0,0,3.943,1.358c1.006,0,6.528,1.469,7.2,2.2s3.4.206,3.4.206,2.24.734,4.215,1.226,2.937,3.738,2.512,5.03a3.93,3.93,0,0,0,.955,3.672c.815.815,1.226,3.466,1.226,3.466a3.981,3.981,0,0,1,2.306,1.968c.683,1.469.477,4.759.477,4.759l-10.127,14.276s.132,5.508-.272,6.734,1.425,22.03,1.425,22.03l2.108,35.755a37.112,37.112,0,0,1-3.4,2.651c-.609.272-1.219-12.646-1.219-13.115s-15.708-23.5-15.708-23.5-2.108-3.4-2.108-4.149-1.968-7.615-1.968-7.615L1082.9,572.26Z" transform="translate(-2915.553 -457.419)"/>
    <path id="Path_317" data-name="Path 317" class="cls-15" d="M1118.29,551.649v.778l-10.119,14.261h0s.139,5.508-.272,6.734c-.235.734.279,8.026.734,14.033.345,4.333.661,7.99.661,7.99l.9,15.164,1.212,20.562a37.106,37.106,0,0,1-3.4,2.651c-.609.272-1.219-12.646-1.219-13.123s-15.708-23.5-15.708-23.5-2.108-3.4-2.108-4.149-1.968-7.615-1.968-7.615l-2.989-13.218,1.359-40.514,1.153-8.974a19.258,19.258,0,0,0,2.585,3.6l2.937,2.247a17.247,17.247,0,0,0,3.943,1.359c1.006,0,6.528,1.469,7.2,2.2s3.4.206,3.4.206,2.247.734,4.215,1.226,2.938,3.738,2.512,5.03a3.936,3.936,0,0,0,.955,3.672c.815.815,1.226,3.466,1.226,3.466a3.981,3.981,0,0,1,2.306,1.968,11.01,11.01,0,0,1,.485,3.944Z" transform="translate(-2915.846 -457.422)"/>
    <path id="Path_318" data-name="Path 318" class="cls-13" d="M1017.53,808.76c.338,0,14.614.543,14.342,2.857S1017.53,808.76,1017.53,808.76Z" transform="translate(-2898.185 -533.406)"/>
    <path id="Path_319" data-name="Path 319" class="cls-13" d="M1021.88,814s9.583,1.564,7.072,2.989S1021.88,814,1021.88,814Z" transform="translate(-2899.341 -534.798)"/>
    <path id="Path_320" data-name="Path 320" class="cls-13" d="M1070.39,806.73s15.906,1.359,13.527,3.121-8.019,2.042-8.291,2.108S1070.39,806.73,1070.39,806.73Z" transform="translate(-2912.227 -532.867)"/>
    <path id="Path_321" data-name="Path 321" class="cls-13" d="M1067.8,816.26s8.812,1.469,9.106,3.194S1067.8,816.26,1067.8,816.26Z" transform="translate(-2911.539 -535.399)"/>
    <path id="Path_322" data-name="Path 322" class="cls-13" d="M1074.46,760.53s8.078,1.9,8.57,3.194Z" transform="translate(-2913.309 -520.594)"/>
    <path id="Path_323" data-name="Path 323" class="cls-13" d="M1031.31,768.49s-4.215,1.226-.132,3.672S1031.31,768.49,1031.31,768.49Z" transform="translate(-2901.337 -522.708)"/>
    <path id="Path_324" data-name="Path 324" class="cls-13" d="M1057.43,678.938c.477,0,7.887-2.445,10.472-1.359a17.22,17.22,0,0,0,5.772,1.087Z" transform="translate(-2908.785 -498.484)"/>
    <path id="Path_325" data-name="Path 325" class="cls-13" d="M1055.24,688.723l-.073.676-6.338,16.6s-1.021,5.03-1.9,7.887a51.884,51.884,0,0,0-1.329,5.875l5.61-34.786Z" transform="translate(-2905.642 -500.521)"/>
    <path id="Path_326" data-name="Path 326" class="cls-19" d="M1070.63,647.692l-2.636.044h-.081l-1.549-6.852,2.291-.125Z" transform="translate(-2911.157 -488.777)"/>
    <path id="Path_327" data-name="Path 327" class="cls-17" d="M1105.94,636.538l-1.689,1.4-5.655,4.648s-15.289,8.159-19.5.411c-3.716-6.829,13.622-11.706,17.8-12.77l.889-.213Z" transform="translate(-2914.402 -485.921)"/>
    <path id="Path_328" data-name="Path 328" class="cls-13" d="M1026.88,547.9s2.989,1.359,3.672,3.261S1026.88,547.9,1026.88,547.9Z" transform="translate(-2900.669 -464.109)"/>
    <path id="Path_329" data-name="Path 329" class="cls-13" d="M1013.2,575.67s-4.347,5.3-2.585,7.344S1013.2,575.67,1013.2,575.67Z" transform="translate(-2896.237 -471.486)"/>
    <path id="Path_330" data-name="Path 330" class="cls-13" d="M1118.67,552s-4.076.411-4.215,3.943Z" transform="translate(-2923.932 -465.198)"/>
    <path id="Path_331" data-name="Path 331" class="cls-13" d="M1068.72,623.132c.411-.411,9.789-14.276,11.97-13.049Z" transform="translate(-2911.784 -480.607)"/>
    <path id="Path_332" data-name="Path 332" class="cls-13" d="M1080.92,499.248a16.158,16.158,0,0,1-1.919,7.64l-.116,0c-1.028-.22-1.564-1.41-2.343-2.159a3.18,3.18,0,0,0-3.672-.514,3.73,3.73,0,0,0-1.806,3.488c-.514-2.2-.352-4.494-.859-6.675s-2.027-4.406-4.112-4.406c-.9,0-1.946.33-2.592-.345a6.434,6.434,0,0,1-.734-1.535c-1.469-2.416-6.022-1.2-7.872.044s-4,3.209-6.3,4.267a16.178,16.178,0,1,1,32.355.235Z" transform="translate(-2906.436 -446.865)"/>
    <path id="Path_333" data-name="Path 333" class="cls-21" d="M1061.23,491.133a10.292,10.292,0,0,0,.734,1.542c.646.668,1.7.323,2.592.338,2.086.037,3.613,2.247,4.112,4.406s.345,4.494.866,6.668a3.672,3.672,0,0,1,1.8-3.481,3.194,3.194,0,0,1,3.672.507c.778.734,1.314,1.946,2.343,2.159s2.012-.771,2.379-1.851a28.33,28.33,0,0,0,.587-3.385c.463-2.115,1.851-3.855,2.614-5.875a10.655,10.655,0,0,0-.066-7.593c-.514-1.278-1.271-2.423-1.785-3.672-.786-1.931-.991-4.12-1.946-5.963a7.05,7.05,0,0,0-8.467-3.481c-1.469.558-2.761,1.63-4.259,2.115-2.012.646-4.156.162-6.235-.132s-4.406-.316-6.051,1.05c-1.924,1.579-2.453,4.538-4.259,6.264-.734.734-1.7,1.19-2.5,1.858a3.451,3.451,0,0,0-1.4,2.761c.125,1.41,1.469,2.688.991,4a3.1,3.1,0,0,1-.734.991,14.229,14.229,0,0,0-3.29,5.6c3.672,1.131,7.578-2.879,10.42-4.773C1055.21,489.944,1059.74,488.725,1061.23,491.133Z" transform="translate(-2904.93 -443.707)"/>
    <path id="Path_334" data-name="Path 334" class="cls-13" d="M1112.47,636.538l-1.689,1.4c-1.469-2.49-7.623-7.454-7.623-7.454l.264-.257.889-.213Z" transform="translate(-2920.933 -485.921)"/>
    <path id="Path_335" data-name="Path 335" class="cls-18" d="M1114.25,633.231s-.6,1.513-1.234,2.82-1.315,2.5-1.344,1.535c-.073-1.909-7.953-8.3-7.953-8.3l1.065-1.043,1.241-1.2Z" transform="translate(-2921.082 -485.132)"/>
    <path id="Path_336" data-name="Path 336" class="cls-13" d="M1114.55,618.88l.9,15.164c-2.115-3.283-7.909-11.7-11.632-11.427l9.04-10.4a12.138,12.138,0,0,0,1.035-1.329C1114.23,615.223,1114.55,618.88,1114.55,618.88Z" transform="translate(-2921.105 -480.842)"/>
    <path id="Path_337" data-name="Path 337" class="cls-13" d="M1114.64,633.231s-.6,1.513-1.234,2.82c-2.372-3.246-5.625-7.086-8.232-7.806l1.241-1.2Z" transform="translate(-2921.467 -485.132)"/>
    <path id="Path_338" data-name="Path 338" class="cls-15" d="M1121.22,560.58l2.445,1.9s4.083.073,4.487,3.466,4.149,4.964,4.149,4.964,2.783,2.791,2.783,4.083,2.107,3.6,2.107,3.8,2.042,4.347,1.77,5.1,2.2,4.01,1.425,5.236a31.482,31.482,0,0,0-1.63,3.4s-3.2,6.117-4.825,7.27-9.106,10.883-9.106,10.883-8.026,9.238-8.026,12.095c0,0-7.813-13.049-12.44-12.712l9.04-10.4s1.564-1.7,1.637-2.717,4.347-5.713,6.389-5.919c0,0,.338-2.783-.543-2.857s-1.63-2.2-1.63-2.2-5.985-7.072-6.051-11.559S1121.22,560.58,1121.22,560.58Z" transform="translate(-2921.252 -467.477)"/>
    <path id="Path_339" data-name="Path 339" class="cls-13" d="M1130.54,569.37s-5.713,4.215-4.487,5.581S1130.54,569.37,1130.54,569.37Z" transform="translate(-2926.97 -469.812)"/>
    <path id="Path_340" data-name="Path 340" class="cls-13" d="M1132.6,592.523s10.6-3.4,11.691,0Z" transform="translate(-2928.754 -475.561)"/>
    <path id="Path_341" data-name="Path 341" class="cls-13" d="M1029.49,838.652s-5.713,3.745-8.57,3.194a10.28,10.28,0,0,0-5.779.955,17.152,17.152,0,0,1-7.2,4.692c-4.626,1.564-11.081.947-14.753-.272-1.733-.58-1.873-1.329-1.035-2.247,3.988.793,12.91,2.372,15.311,1.226a63.73,63.73,0,0,0,7.615-4.759s5.875-.815,6.661-.815a72.694,72.694,0,0,0,7.645-2.937Z" transform="translate(-2891.311 -541.091)"/>
    <path id="Path_343" data-name="Path 343" class="cls-13" d="M1030.11,568.26s0,15.5-1.322,17.03S1030.11,568.26,1030.11,568.26Z" transform="translate(-2901.077 -469.517)"/>
    <path id="Path_344" data-name="Path 344" class="cls-13" d="M1114.17,575.07l1.975,5.537S1116.92,575.173,1114.17,575.07Z" transform="translate(-2923.858 -471.326)"/>
    <g id="Group_22" data-name="Group 22" class="cls-22" transform="translate(-1861.973 40.428)">
      <path id="Path_345" data-name="Path 345" d="M1048.28,492.742c.5-1.27-.808-2.526-.977-3.892a2.5,2.5,0,0,0-.22,1.226c.088,1.035.852,2,1.05,2.937a1.672,1.672,0,0,0,.147-.271Z" transform="translate(-1044.062 -488.85)"/>
      <path id="Path_346" data-name="Path 346" d="M1069.75,508.942c-.485-2.144-.338-4.406-.837-6.558s-2.027-4.406-4.112-4.406c-.9,0-1.946.323-2.592-.345-.4-.4-.47-1.043-.734-1.542-1.469-2.409-6.021-1.182-7.88.051-2.776,1.843-6.609,5.713-10.163,4.832-.169.411-.33.83-.463,1.263,3.672,1.131,7.578-2.879,10.42-4.773,1.858-1.234,6.389-2.453,7.88-.044a10.334,10.334,0,0,0,.734,1.542c.646.668,1.7.323,2.592.338,2.086.037,3.613,2.247,4.112,4.406s.345,4.494.867,6.668a3.671,3.671,0,0,1,.176-1.432Z" transform="translate(-1042.97 -490.407)"/>
      <path id="Path_347" data-name="Path 347" d="M1089.67,510.192c-.367,1.079-1.336,2.071-2.387,1.851s-1.557-1.41-2.335-2.159a3.2,3.2,0,0,0-3.672-.514,3.716,3.716,0,0,0-1.807,3.3,3.547,3.547,0,0,1,1.6-1.968,3.2,3.2,0,0,1,3.672.507c.778.734,1.315,1.946,2.342,2.159s2.012-.771,2.379-1.851a8.678,8.678,0,0,0,.375-1.953,4.692,4.692,0,0,1-.169.632Z" transform="translate(-1052.666 -494.206)"/>
      <path id="Path_348" data-name="Path 348" d="M1096.7,497.453c-.734,2.012-2.152,3.753-2.614,5.875-.088.426-.147.867-.2,1.307.47-2.115,1.843-3.848,2.607-5.875a10.2,10.2,0,0,0,.624-2.82,10.279,10.279,0,0,1-.419,1.513Z" transform="translate(-1056.497 -490.733)"/>
    </g>
    <circle id="Ellipse_11" data-name="Ellipse 11" class="cls-23" cx="0.169" cy="0.169" r="0.169" transform="translate(-1920.178 96.033)"/>
    <rect id="Rectangle_123" data-name="Rectangle 123" class="cls-7" width="133.049" height="152.906" rx="6.61" transform="translate(-1983.449 99.991)"/>
    <rect id="Rectangle_124" data-name="Rectangle 124" class="cls-24" width="133.049" height="152.906" rx="6.61" transform="translate(-1983.449 99.991)"/>
    <rect id="Rectangle_125" data-name="Rectangle 125" class="cls-7" width="119.479" height="137.309" rx="6.61" transform="translate(-1976.664 107.79)"/>
    <rect id="Rectangle_126" data-name="Rectangle 126" class="cls-25" width="81.968" height="28.287" rx="6.03" transform="translate(-1959.282 135.328)"/>
    <rect id="Rectangle_127" data-name="Rectangle 127" class="cls-25" width="75.954" height="5.772" transform="translate(-1956.271 173.962)"/>
    <rect id="Rectangle_128" data-name="Rectangle 128" class="cls-25" width="104.513" height="5.772" transform="translate(-1969.181 186.145)"/>
    <rect id="Rectangle_129" data-name="Rectangle 129" class="cls-25" width="104.513" height="5.772" transform="translate(-1969.181 198.967)"/>
    <rect id="Rectangle_130" data-name="Rectangle 130" class="cls-25" width="104.513" height="5.772" transform="translate(-1969.181 211.789)"/>
    <rect id="Rectangle_131" data-name="Rectangle 131" class="cls-7" width="313.281" height="152.906" rx="6.61" transform="translate(-2607 49.446)"/>
    <rect id="Rectangle_132" data-name="Rectangle 132" class="cls-24" width="313.281" height="152.906" rx="6.61" transform="translate(-2607 49.446)"/>
    <rect id="Rectangle_133" data-name="Rectangle 133" class="cls-7" width="281.315" height="137.309" rx="6.61" transform="translate(-2591.021 57.245)"/>
    <rect id="Rectangle_134" data-name="Rectangle 134" class="cls-26" width="192.994" height="28.287" rx="6.03" transform="translate(-2550.081 84.79)"/>
    <rect id="Rectangle_135" data-name="Rectangle 135" class="cls-26" width="178.836" height="5.772" transform="translate(-2543.002 123.417)"/>
    <rect id="Rectangle_136" data-name="Rectangle 136" class="cls-26" width="246.081" height="5.772" transform="translate(-2573.404 135.6)"/>
    <rect id="Rectangle_137" data-name="Rectangle 137" class="cls-26" width="246.081" height="5.772" transform="translate(-2573.404 148.422)"/>
    <rect id="Rectangle_138" data-name="Rectangle 138" class="cls-26" width="246.081" height="5.772" transform="translate(-2573.404 161.243)"/>
    <path id="Path_349" data-name="Path 349" class="cls-27" d="M132.686,760.974c.874-3.187,1.469-5.992,1.469-5.992a12.484,12.484,0,0,1,1.63-6.073v-.881h0l.25-6.47a21.536,21.536,0,0,0-1.469-3.451c-1.087-2.078.367-9.488.367-9.488s4.722-10.332,3.929-17.037,10-29.249,10-29.249a28.994,28.994,0,0,0-.676-6.609,5.067,5.067,0,0,1-.073-1.373,1.3,1.3,0,0,1,0-.169v.051c.316-4.406,4.1-12.484,4.1-12.484l.14-15.715s-1.865-9.341,2.2-21.627c1.432-4.289,2.372-7.725,2.989-10.384.073-.3.14-.587.2-.867-7.4-1.425-13.057-2.585-13.057-2.585s5.016-17.9,8.078-20.951,5.75-12.9,5.75-12.9,2.012-12.7-.294-16.523-2.409-10.281-2.409-10.281-5.449-4.281-6.08-6.11a29.957,29.957,0,0,1-1.557-8.078c.081-2.13.859-4.039.668-5.177s1.843-5.353.984-7.424a5.683,5.683,0,0,1-.294-1.975v-.059h0a27.478,27.478,0,0,1,.7-5.28,14.981,14.981,0,0,1,5.654-2.746l.14-.485.367-1.256a6.141,6.141,0,0,1,.558-.308l.037-.463.117-1.829-.705-4.171c-1.469-7.241,8.166-7.938,8.166-7.938a5.045,5.045,0,0,1,2.8-2.276c1.953-.6-.088,10.8-1.021,11.5-.734.521-2.937,4.039-4,5.765h0l-.176.286a3.977,3.977,0,0,1,.426.477l-.463,2.475-.073.375a10.28,10.28,0,0,1,1.432,2.666,5.536,5.536,0,0,0-1.557,4.01,12.918,12.918,0,0,1-.734,4.942c.1-.11,1.388-1.4,2.607-1.028s4.612,1.535,4.612,1.535,2.548.551,2.291,1.109,1.638,3.114,1.638,3.114L179.5,525.3c.081-.2.154-.389.228-.587a16.414,16.414,0,0,0,.734-2.842,15.336,15.336,0,0,1-2.2-.786,4.8,4.8,0,0,1-1.865-1.292,7.71,7.71,0,0,1-.991-3.018,42.317,42.317,0,0,0-2.343-5.809,18.571,18.571,0,0,1-.984-10.281,6.844,6.844,0,0,1,1.175-2.937c1.19-1.5,3.253-2.056,4.788-3.231s2.563-3.033,4.325-3.892a8.335,8.335,0,0,1,5.258-.25,28.1,28.1,0,0,1,9.583,3.9c.984.639,2.064,1.373,3.231,1.2a4.457,4.457,0,0,0,2.423-1.638.546.546,0,0,1,0-.1l.081-.081a12.11,12.11,0,0,1,.867,5.2,3.881,3.881,0,0,1-.059.822v.286a1.333,1.333,0,0,0,0,.242h0a1.21,1.21,0,0,0,.044.36,2.578,2.578,0,0,0,.609.962,5.249,5.249,0,0,1,.529.786,1.05,1.05,0,0,0-.081-.286,4.1,4.1,0,0,1,.632,2.2,2.152,2.152,0,0,1-.58,1.535,6.827,6.827,0,0,1-1.16.867,13.182,13.182,0,0,1-6.815,13.431c-.088.191-.176.389-.257.587a16.42,16.42,0,0,0-1.542,7.468,1.761,1.761,0,0,0,.059.551c.059.184.169.2.242.3h0s11.382.551,14.158-1.777,6.536,6.191,6.536,6.191,4.054.947,4.9.191,5.61.1,5.61.1a10.281,10.281,0,0,1,7.211-2.328,21.067,21.067,0,0,1,5.339-2.7h0l.132-.044h0a5.757,5.757,0,0,1,2.578-.228s5.779-4.406,7.505-6.837,9.826-11.338,9.826-11.382l.051-.441.139-1.337a4.5,4.5,0,0,0,.69.088l.176-.463a25.21,25.21,0,0,1,1.8-3.73s.066-1.7-.411-2.137.463-6.609.463-6.609,5.5-11.6,9.679-2.622c0,0,8.328,6.029.9,12.388,0,0-2.937,1.278-3.356,2.357-.294.734-1.344,2.658-2.049,3.958l-.316.58.081.073-.147,1.1-.059.433c1.314.815,2.2,1.608,1.961,2.2a12.484,12.484,0,0,0-.933,3.018s-10.384,11.97-11.867,17.25c0,0-27.215,14.79-35.983,15.583l1.212,7.96a63.461,63.461,0,0,1,.1,6.455c-.184,1.689.69,9.407.69,9.407s1.079,11.353,2.306,12.983.734,8.4.734,8.4a57.206,57.206,0,0,0,1.381,9.664,24.693,24.693,0,0,1,0,9.613s4.046,10.332-6.308,3.033c0,0-5.2-.521-11.191-.955V619c0,.778-.037,1.616-.059,2.5-.147,5.823-.419,13.843-.918,19.9-.881,10.714-4.964,31.819-4.964,31.819l-.411,10.663a14.129,14.129,0,0,1,.191,3.062,19.827,19.827,0,0,1-3.283,10.567l-1.094,7.086s-2.093,4.612-2.24,7.41a3.334,3.334,0,0,0,.059.683,5.447,5.447,0,0,1,.051,1.094c0,3.231-2.262,10.883-2.262,10.883s-.419,7.791-1.6,8.2c-1.013.352,1.16,4.546,1.806,5.75a1.2,1.2,0,0,0,.051-.22l.14.235a5.537,5.537,0,0,1,.286,1.99,2.842,2.842,0,0,1-1.4,2.688c-2.269,1.27-3.5,2.35-1.638,2.879a20.758,20.758,0,0,1,2.041.507l.11-.257a1.256,1.256,0,0,1,.734,1.4,5.706,5.706,0,0,1-.8,2.614,28.463,28.463,0,0,1-3.378,5.64l-.9-.132a4.48,4.48,0,0,0,.485.977,3.73,3.73,0,0,0,1.278,1.226,4.086,4.086,0,0,0,1.572.6,4.531,4.531,0,0,1,3.246,1.74c1.1,1.549,1.755,3.628-.617,5.339L187,768.4s-14.423,1.314-13.541-1.873,1.469-5.992,1.469-5.992a12.741,12.741,0,0,1,1.381-5.669,7.581,7.581,0,0,1,.543-.823l-.507-.073s-.837-7.16-2.218-8.548c-.308-.33-.375-.573-.294-.734-.125-.389.242-.6.734-.734a1.144,1.144,0,0,0,.1.279,7.082,7.082,0,0,1,1.4-.1s.61-3.708-.852-5.14a1.4,1.4,0,0,1-.25-1.116,5.72,5.72,0,0,1,.213-1.513.551.551,0,0,0,.051.088,55.578,55.578,0,0,1,3.672-8.621s.242-3.385-.639-4.781.83-18.4.83-18.4-.037-8.254,1.16-12.051-.962-8.408-.962-8.408a1.165,1.165,0,0,1,.037-.242.3.3,0,0,0,0-.066s.073-.507.191-1.292v.081c.323-2.2.918-6.1,1.314-7.924.565-2.578.463-15.025.463-15.025l-1.9-5.361-4.09,9L170.9,675.4a10.363,10.363,0,0,0-2.2,5.14v.389a6.116,6.116,0,0,1,0,.815,7.284,7.284,0,0,1-1.381,4.3s-1.27,5.721-2.937,7.123-1.8,4.23-1.8,4.23-2.306,8.283-3.3,9.715c-.83,1.2-1.006,4.6-1.035,5.647h0v.3s-.389,2.982-.477,5.493v.889a.161.161,0,0,1,0-.059,8.51,8.51,0,0,0,.162,2.034s0,.081,0,.125v-.426a21.361,21.361,0,0,1,.4,5.229c-.066,3-.661,6.543-2.563,8.562-3.29,3.5-5.251,2.937-5.251,2.937s1.344,4.575,3.172,5.552a1.158,1.158,0,0,1,.2.132.451.451,0,0,1,.051-.257,2.2,2.2,0,0,1,.485,1.7,12.176,12.176,0,0,1-2.57,6.609,3.671,3.671,0,0,1-1.608.866,2.758,2.758,0,0,0,.286.191,5.768,5.768,0,0,0,.632.323,3.12,3.12,0,0,0,.94.286,4.465,4.465,0,0,1,3.246,1.74c1.1,1.542,1.755,3.62-.617,5.331l-8.452,2.556S131.8,764.161,132.686,760.974Z" transform="translate(-2663.115 -448.594)"/>
    <path id="Path_351" data-name="Path 351" class="cls-28" d="M148.687,856l8.188-2.563c2.3-1.718,1.667-3.8.6-5.339a4.289,4.289,0,0,0-3.143-1.733,2.884,2.884,0,0,1-.911-.279,5.764,5.764,0,0,1-.61-.33c-2.2-1.329-2.034-4.406-2.034-4.406s-8.768-2.937-11.294-.433a6.48,6.48,0,0,0-.9,1.116A12.815,12.815,0,0,0,137,848.118s-.565,2.8-1.417,5.992S148.687,856,148.687,856Z" transform="translate(-2663.886 -541.68)"/>
    <path id="Path_353" data-name="Path 353" class="cls-13" d="M139.655,842.06l-.1,2.489c1.939,3.488,11.963,3.128,14.929,1.535a5.738,5.738,0,0,1-.609-.33c-2.2-1.329-2.034-4.406-2.034-4.406s-8.768-2.937-11.294-.433a6.491,6.491,0,0,0-.892,1.145Z" transform="translate(-2664.952 -541.679)"/>
    <path id="Path_354" data-name="Path 354" class="cls-29" d="M137.96,780.662a22.815,22.815,0,0,1,1.469,3.451l-.36,8.915c2.115,3.819,13.909,3.026,15.568,1.057s3.554-7.219,1.784-8.188-3.07-5.552-3.07-5.552,1.9.529,5.1-2.937,2.592-11.551,2.093-13.49.33-8.357.33-8.357.059-4.524,1.021-5.956,3.2-9.715,3.2-9.715.1-2.827,1.74-4.23,2.879-7.131,2.879-7.131a7.387,7.387,0,0,0,1.314-4.81c-.228-2.835,2.144-5.8,2.144-5.8l4.311-12.043,3.965-9.01,1.829,5.383s.088,12.447-.463,15.025-1.469,9.444-1.469,9.444,2.086,4.6.925,8.408-1.146,12.051-1.146,12.051-1.674,17.015-.822,18.4.61,4.773.61,4.773-5.008,9.759-3.6,11.177.822,5.14.822,5.14-3.158-.125-1.858,1.285,2,8.511,2,8.511l13.593,2.108a28.77,28.77,0,0,0,3.275-5.647c1.968-4.1-.191-3.738-1.99-4.259s-.61-1.608,1.586-2.879,1.072-4.369,1.072-4.369-3.062-5.662-1.909-6.066,1.557-8.2,1.557-8.2,2.614-9.179,2.144-11.683,2.137-8.4,2.137-8.4l1.057-7.079a19.556,19.556,0,0,0,3-13.343l.426-10.956s3.995-21.068,4.891-31.819c.558-6.859.837-16.236.962-22.089.073-3.29.1-5.464.1-5.464l-48.592-6.962a40.1,40.1,0,0,1-1.168,7.211,107.239,107.239,0,0,1-2.937,10.391c-3.98,12.286-2.2,21.627-2.2,21.627l-.154,15.715s-4.7,10.34-3.929,13.989a29.843,29.843,0,0,1,.646,6.609s-10.457,22.53-9.693,29.2-3.826,17.044-3.826,17.044S136.91,778.583,137.96,780.662Z" transform="translate(-2664.424 -491.061)"/>
    <path id="Path_355" data-name="Path 355" class="cls-30" d="M173.825,748.57,159.05,746S167.135,754.93,173.825,748.57Z" transform="translate(-2670.13 -516.734)"/>
    <path id="Path_356" data-name="Path 356" class="cls-13" d="M162.36,726.39s-.734,5.229,2.431,7.343C164.761,733.719,159.07,732.6,162.36,726.39Z" transform="translate(-2670.737 -511.525)"/>
    <path id="Path_357" data-name="Path 357" class="cls-13" d="M164.85,703.67s12.021,10.7,16.567,10.031S164.85,703.67,164.85,703.67Z" transform="translate(-2671.67 -505.489)"/>
    <path id="Path_358" data-name="Path 358" class="cls-13" d="M204,757s9.348,2.511,9.488,6.3S204,757,204,757Z" transform="translate(-2682.071 -519.656)"/>
    <path id="Path_359" data-name="Path 359" class="cls-30" d="M197.807,821s13.218,3,9.385,4.546a64.019,64.019,0,0,1-10.112,2.666S192.777,828.285,197.807,821Z" transform="translate(-2679.777 -536.658)"/>
    <g id="Group_23" data-name="Group 23" class="cls-31" transform="translate(-2526.843 164.893)">
      <path id="Path_360" data-name="Path 360" d="M214.1,830.32a2.644,2.644,0,0,0,1.292-1.88l.125.242s1.131,3.092-1.072,4.406c-.25.14-.485.286-.734.426-.389-.088-.815-.162-1.219-.279C210.7,832.685,211.9,831.6,214.1,830.32Z" transform="translate(-157.253 -703.527)"/>
      <path id="Path_361" data-name="Path 361" d="M191.571,828.038c-.352-.352-.3-1.219,0-2.328a6.308,6.308,0,0,1,.632,3.3,2.569,2.569,0,0,0-.632-.977Z" transform="translate(-151.86 -702.802)"/>
      <path id="Path_362" data-name="Path 362" d="M197.331,752.48a15.361,15.361,0,0,1,.734,4.193,16.015,16.015,0,0,0-.925-2.893S197.221,753.273,197.331,752.48Z" transform="translate(-153.405 -683.348)"/>
      <path id="Path_363" data-name="Path 363" d="M156.138,742.361a5.39,5.39,0,0,1-.081-1.241c.14.852.228,1.638.279,2.328C156.278,743.1,156.212,742.736,156.138,742.361Z" transform="translate(-142.49 -680.331)"/>
      <path id="Path_364" data-name="Path 364" d="M195.637,806.259a7.483,7.483,0,0,1-.235-2.519,8.5,8.5,0,0,1,.529,3.187,3.109,3.109,0,0,0-.294-.668Z" transform="translate(-152.937 -696.966)"/>
      <path id="Path_365" data-name="Path 365" d="M190.546,836a44.358,44.358,0,0,1,1.285,7l13.593,2.108a28.46,28.46,0,0,0,3.283-5.647c.176-.36.308-.683.426-.977.8.4,1.094,1.27-.081,3.708a28.8,28.8,0,0,1-3.275,5.64l-13.622-2.093s-.734-7.153-2.049-8.555C189.5,836.485,189.951,836.169,190.546,836Z" transform="translate(-151.46 -705.536)"/>
      <path id="Path_366" data-name="Path 366" d="M215.66,769.234s-.411,7.791-1.557,8.2h0c-.521-1.315-.859-2.548-.345-2.732,1.146-.411,1.564-8.2,1.564-8.2s2.614-9.172,2.144-11.683,2.13-8.394,2.13-8.394l1.065-7.087a19.556,19.556,0,0,0,3-13.343l.419-10.956s3.98-21.1,4.847-31.819c.551-6.859.83-16.236.962-22.089,0-1.057.044-2,.059-2.791l.389.059s0,2.2-.1,5.456c-.125,5.875-.4,15.238-.962,22.1-.867,10.707-4.839,31.819-4.839,31.819l-.426,10.949a19.578,19.578,0,0,1-3,13.343l-1.072,7.086s-2.607,5.875-2.137,8.4S215.66,769.234,215.66,769.234Z" transform="translate(-157.752 -658.34)"/>
      <path id="Path_367" data-name="Path 367" d="M154.843,840.4a13.219,13.219,0,0,0,2.365-5.28c1.344,1.307-.441,6.132-2.019,8s-13.453,2.761-15.568-1.05l.081-2.152C142.638,843.066,153.272,842.265,154.843,840.4Z" transform="translate(-138.125 -705.302)"/>
      <path id="Path_368" data-name="Path 368" d="M137.625,823.968a22.812,22.812,0,0,1,1.469,3.451L139.028,829a24.627,24.627,0,0,0-1.043-2.306,6.808,6.808,0,0,1-.382-2.813Z" transform="translate(-137.584 -702.316)"/>
      <path id="Path_369" data-name="Path 369" d="M159.633,821.364a22.077,22.077,0,0,1-1.013-2.724s1.9.521,5.089-2.974c2.321-2.548,2.636-7.505,2.445-10.766.5,1.946,1.094,9.995-2.093,13.49C161.961,820.681,160.427,821.247,159.633,821.364Z" transform="translate(-143.172 -697.274)"/>
      <path id="Path_370" data-name="Path 370" d="M169.008,771.3a60.377,60.377,0,0,0-.485,6.69,9.541,9.541,0,0,0-.191-1.057c-.492-1.946.323-8.357.323-8.357s.066-4.524,1.021-5.956,3.2-9.715,3.2-9.715.11-2.82,1.748-4.23,2.879-7.131,2.879-7.131a7.432,7.432,0,0,0,1.314-4.81c-.228-2.835,2.144-5.8,2.144-5.8l4.311-12.043,3.965-9.01,1.829,5.39v1.718l-1.469-4.406-3.965,9-4.311,12.051s-2.372,2.937-2.144,5.8a7.388,7.388,0,0,1-1.314,4.81s-1.241,5.72-2.879,7.123-1.74,4.23-1.74,4.23-2.247,8.283-3.2,9.723S169.008,771.3,169.008,771.3Z" transform="translate(-145.71 -672.032)"/>
    </g>
    <path id="Path_371" data-name="Path 371" class="cls-32" d="M167.229,506.4l.69,4.156-.117,1.836-.088,1.351,4.692.668.565-.955h0c1.043-1.726,3.2-5.243,3.885-5.772.9-.7,2.893-12.1,1-11.5a4.957,4.957,0,0,0-2.717,2.276S165.841,499.163,167.229,506.4Z" transform="translate(-2672.265 -450.363)"/>
    <path id="Path_372" data-name="Path 372" class="cls-13" d="M167.94,519.444l4.693.668.565-.955h0a4.164,4.164,0,0,0-5.14-1.057Z" transform="translate(-2672.491 -456.068)"/>
    <path id="Path_373" data-name="Path 373" class="cls-33" d="M166.2,521.794l6.161,1.682.162-.925.448-2.475a4.281,4.281,0,0,0-5.985-1.05l-.352,1.256Z" transform="translate(-2672.029 -456.23)"/>
    <path id="Path_374" data-name="Path 374" class="cls-32" d="M303.74,508.936l6.492,3.819s.272-.521.654-1.234c.683-1.3,1.7-3.253,1.983-3.958.433-1.079,3.253-2.365,3.253-2.365,7.2-6.367-.852-12.381-.852-12.381-4.039-8.981-9.37,2.629-9.37,2.629s-.918,6.191-.455,6.609.4,2.137.4,2.137a24.96,24.96,0,0,0-1.748,3.731C303.865,508.532,303.74,508.936,303.74,508.936Z" transform="translate(-2708.567 -448.57)"/>
    <path id="Path_375" data-name="Path 375" class="cls-13" d="M303.74,515.648l6.492,3.819s.272-.521.654-1.234c-.911-.815-4.127-3.672-5.221-3.554a7.884,7.884,0,0,1-1.572,0C303.865,515.244,303.74,515.648,303.74,515.648Z" transform="translate(-2708.567 -455.282)"/>
    <path id="Path_376" data-name="Path 376" class="cls-33" d="M302.71,517.73l7.344,3.958.206-1.6.147-1.1s-4.171-3.863-5.449-3.775A6.935,6.935,0,0,1,303,515.13l-.132,1.336Z" transform="translate(-2708.293 -455.403)"/>
    <path id="Path_377" data-name="Path 377" class="cls-32" d="M190.45,539.317s32.363,4.92,26.363,2.717c-4.178-1.542-5.757-4.3-5.992-7.292a17.052,17.052,0,0,1,1.469-7.476,32.762,32.762,0,0,1,3.136-5.757s-24.322-14.621-19.827-2a19.928,19.928,0,0,1,1.182,5.941,16.743,16.743,0,0,1-.867,5.934,17.772,17.772,0,0,1-5.464,7.938Z" transform="translate(-2678.471 -455.202)"/>
    <path id="Path_378" data-name="Path 378" class="cls-13" d="M197.3,519.5a19.932,19.932,0,0,1,1.182,5.941c2.262,2.049,4.832,2.019,8.129,2.144,2.534.1,5.309.822,7.344-.323a32.764,32.764,0,0,1,3.136-5.757S192.8,506.888,197.3,519.5Z" transform="translate(-2680.143 -455.202)"/>
    <circle id="Ellipse_12" data-name="Ellipse 12" class="cls-32" cx="13.446" cy="13.446" r="13.446" transform="translate(-2486.053 46.384)"/>
    <path id="Path_379" data-name="Path 379" class="cls-13" d="M190.45,545.026s32.363,4.92,26.363,2.717c-4.178-1.542-5.757-4.3-5.992-7.292-1.549-1.814-4.751-3.2-6.815-3.958a9.789,9.789,0,0,0-5.875-.323,8.077,8.077,0,0,0-2.2.918,17.771,17.771,0,0,1-5.478,7.938Z" transform="translate(-2678.471 -460.911)"/>
    <path id="Path_380" data-name="Path 380" class="cls-13" d="M166.2,522.474l6.161,1.682.162-.925a5.486,5.486,0,0,0-5.875-2.269Z" transform="translate(-2672.029 -456.91)"/>
    <path id="Path_381" data-name="Path 381" class="cls-13" d="M302.71,518.226l7.344,3.958.206-1.6A55.616,55.616,0,0,0,302.842,517Z" transform="translate(-2708.293 -455.9)"/>
    <path id="Path_382" data-name="Path 382" class="cls-13" d="M168.65,656.571c12.484,2.475,30.329,5.75,33.2,4.994,2.387-.624,9.914-.257,16.457.22.073-3.29.1-5.464.1-5.464l-48.592-6.962a40.1,40.1,0,0,1-1.165,7.212Z" transform="translate(-2672.68 -491.061)"/>
    <path id="Path_383" data-name="Path 383" class="cls-34" d="M151.72,618.122s41.168,8.709,45.669,7.527,27.281,1.16,27.281,1.16c10.009,7.285,6.11-3.04,6.11-3.04a24.854,24.854,0,0,0,0-9.613,58.753,58.753,0,0,1-1.329-9.664s.492-6.771-.69-8.394-2.2-12.983-2.2-12.983-.83-7.718-.654-9.407-.088-6.455-.088-6.455l-1.168-7.96c8.511-.8,34.867-15.62,34.867-15.62,1.469-5.258,11.522-17.316,11.522-17.316a13.043,13.043,0,0,1,.911-3.018c.734-1.777-9.275-5.779-9.275-5.779s-7.938,8.966-9.583,11.39-7.277,6.844-7.277,6.844a5.515,5.515,0,0,0-2.5.228h-.132a20.171,20.171,0,0,0-5.14,2.71,9.84,9.84,0,0,0-6.991,2.328s-4.6-.852-5.42-.1-4.744-.184-4.744-.184-3.672-8.5-6.323-6.176-13.71,1.792-13.71,1.792c-1.388-2.012-4.913-3.547-7.116-4.355a9.731,9.731,0,0,0-5.875-.323,7.631,7.631,0,0,0-2.372,1.036l-6.932,6.286s-1.829-2.556-1.579-3.114-2.2-1.1-2.2-1.1-3.238-1.146-4.465-1.527-2.423.911-2.526,1.028a13.056,13.056,0,0,0,.734-4.942,5.677,5.677,0,0,1,1.5-4.017c-3.576-9.862-12.807-2.071-12.807-2.071s-1.226,5.265-.4,7.344-1.146,6.286-.969,7.424-.565,3.033-.646,5.177a31.857,31.857,0,0,0,1.469,8.078c.58,1.821,5.875,6.11,5.875,6.11s.1,6.448,2.321,10.281.272,16.523.272,16.523-2.644,9.848-5.588,12.9S151.72,618.122,151.72,618.122Z" transform="translate(-2668.182 -456.049)"/>
    <path id="Path_384" data-name="Path 384" class="cls-13" d="M237.809,554.044s1.388-3.672,2.526-3.973a26.007,26.007,0,0,0,3.334-1.344l-.676-1.417s-4.289,1.006-5.008,2.2S237.809,554.044,237.809,554.044Z" transform="translate(-2691 -463.952)"/>
    <path id="Path_385" data-name="Path 385" class="cls-13" d="M269.22,545.454c.184,1.138,10.193,2.541,10.193,2.541L274.53,542.7h-.13A20.175,20.175,0,0,0,269.22,545.454Z" transform="translate(-2699.396 -462.727)"/>
    <circle id="Ellipse_13" data-name="Ellipse 13" class="cls-29" cx="0.903" cy="0.903" r="0.903" transform="translate(-2401.404 67.438)"/>
    <circle id="Ellipse_14" data-name="Ellipse 14" class="cls-29" cx="0.903" cy="0.903" r="0.903" transform="translate(-2402.631 69.2)"/>
    <circle id="Ellipse_15" data-name="Ellipse 15" class="cls-29" cx="0.903" cy="0.903" r="0.903" transform="translate(-2403.828 70.823)"/>
    <circle id="Ellipse_16" data-name="Ellipse 16" class="cls-29" cx="0.903" cy="0.903" r="0.903" transform="translate(-2405.076 72.585)"/>
    <circle id="Ellipse_17" data-name="Ellipse 17" class="cls-29" cx="0.734" cy="0.734" r="0.734" transform="translate(-2511.351 68.561)"/>
    <circle id="Ellipse_18" data-name="Ellipse 18" class="cls-29" cx="0.734" cy="0.734" r="0.734" transform="translate(-2511.528 70.221)"/>
    <circle id="Ellipse_19" data-name="Ellipse 19" class="cls-29" cx="0.734" cy="0.734" r="0.734" transform="translate(-2511.696 71.88)"/>
    <path id="Path_386" data-name="Path 386" class="cls-13" d="M219.692,598.15c.11-.125-26.583,31.041-45.632,11.706C174.06,609.855,205.123,615.29,219.692,598.15Z" transform="translate(-2674.117 -477.457)"/>
    <path id="Path_387" data-name="Path 387" class="cls-13" d="M249.021,621.68s-15.252-.169-17.015,4.149l-.176,4.56a2.937,2.937,0,0,0,2.835.11c1.572-.771,10.956-5.1,14.122-2.717Z" transform="translate(-2689.464 -483.708)"/>
    <path id="Path_388" data-name="Path 388" class="cls-35" d="M248.9,621.66s-14.577-.162-16.266,3.958l-.169,4.347a2.791,2.791,0,0,0,2.71.1c1.469-.734,10.479-4.854,13.5-2.592Z" transform="translate(-2689.634 -483.703)"/>
    <path id="Path_389" data-name="Path 389" class="cls-13" d="M239.9,576.2a49.5,49.5,0,0,1-6.293,9.906A39.705,39.705,0,0,1,224,594.684S239.561,578.256,239.9,576.2Z" transform="translate(-2687.384 -471.626)"/>
    <path id="Path_390" data-name="Path 390" class="cls-13" d="M249.867,552.36s-2.937,10.876-9.657,14.349Z" transform="translate(-2691.69 -465.293)"/>
    <path id="Path_391" data-name="Path 391" class="cls-13" d="M255.366,554.069c.073-.2,1.924,8.768-8.966,13.27C246.4,567.339,251,565.965,255.366,554.069Z" transform="translate(-2693.334 -465.746)"/>
    <path id="Path_392" data-name="Path 392" class="cls-13" d="M165.9,540.564c.169,0-5.412,3.268-6.954,4.817C158.987,545.381,162.7,540.211,165.9,540.564Z" transform="translate(-2670.103 -462.155)"/>
    <path id="Path_393" data-name="Path 393" class="cls-28" d="M208.233,520.972a2.886,2.886,0,0,1-1.124,1.777,2.768,2.768,0,0,1-1.278.228c-4.1.1-8.379.117-12.1-1.608a4.567,4.567,0,0,1-1.8-1.292,7.406,7.406,0,0,1-.962-3.018,43.7,43.7,0,0,0-2.262-5.8,19.093,19.093,0,0,1-.933-10.281,6.88,6.88,0,0,1,1.138-2.937c1.146-1.5,3.15-2.056,4.634-3.238s2.482-3.033,4.2-3.9a7.752,7.752,0,0,1,5.082-.25,26.671,26.671,0,0,1,9.326,3.914c.947.639,1.99,1.366,3.121,1.2a4.347,4.347,0,0,0,2.394-1.689,12.484,12.484,0,0,1,.778,5.875,2.534,2.534,0,0,0,0,.881,2.681,2.681,0,0,0,.588.962c.962,1.212,1.527,3.092.485,4.237-.455.5-1.138.734-1.579,1.27-.793.911-.6,2.276-.624,3.488a1.836,1.836,0,0,1-.338,1.182,1.755,1.755,0,0,1-1.674.331,4.568,4.568,0,0,0-1.762-.235,2.937,2.937,0,0,0-1.579,1.116C209.974,515.486,209.151,518.108,208.233,520.972Z" transform="translate(-2677.675 -448.82)"/>
    <g id="Group_24" data-name="Group 24" class="cls-22" transform="translate(-2486.273 45.04)">
      <path id="Path_394" data-name="Path 394" d="M192.955,523.328a4.509,4.509,0,0,0,1.8,1.3c3.723,1.726,8,1.7,12.1,1.608a2.68,2.68,0,0,0,1.278-.235,2.849,2.849,0,0,0,1.124-1.77c.9-2.871,1.74-5.486,3.731-7.821a2.937,2.937,0,0,1,1.579-1.124,4.716,4.716,0,0,1,1.762.235,1.733,1.733,0,0,0,1.674-.33,1.807,1.807,0,0,0,.338-1.175c0-1.212-.169-2.578.624-3.5.441-.507,1.124-.734,1.579-1.263a2.658,2.658,0,0,0,.36-2.688c.676,1.168.933,2.644.051,3.606-.455.5-1.131.734-1.579,1.27-.793.911-.587,2.276-.617,3.488a1.8,1.8,0,0,1-.345,1.182,1.748,1.748,0,0,1-1.674.33,4.531,4.531,0,0,0-1.755-.235,2.938,2.938,0,0,0-1.586,1.124c-1.983,2.328-2.82,4.95-3.73,7.814a2.122,2.122,0,0,1-2.394,2.012c-4.105.1-8.379.11-12.109-1.616a4.6,4.6,0,0,1-1.8-1.292,3.525,3.525,0,0,1-.536-1.109,1.351,1.351,0,0,0,.125.184Z" transform="translate(-192.83 -498.169)"/>
      <path id="Path_395" data-name="Path 395" d="M229.322,501.717a1.814,1.814,0,0,1-.382-.734,2.534,2.534,0,0,1,0-.881,12.521,12.521,0,0,0-.441-4.891l.073-.081a12.388,12.388,0,0,1,.786,5.875A3.989,3.989,0,0,0,229.322,501.717Z" transform="translate(-202.306 -495.13)"/>
    </g>
    <path id="Path_396" data-name="Path 396" class="cls-13" d="M211.965,542.906s-16.89,1.579-18.285-1.006" transform="translate(-2679.329 -462.515)"/>
    <path id="Path_397" data-name="Path 397" class="cls-13" d="M170.345,532.1s-9.334-.345-11.515,3.07" transform="translate(-2670.071 -459.908)"/>
  </g>
</svg>
