<svg id="coding_resource" data-name="coding resource" xmlns="http://www.w3.org/2000/svg" viewBox="0 0 232.364 143.538">
  <defs>
    <style>
      .cls-1 {
        fill: #fff;
        fill-rule: evenodd;
      }
    </style>
  </defs>
  <path id="Path_2" data-name="Path 2" class="cls-1" d="M180.843,740.19a9.169,9.169,0,0,0-6.3,2.773l-47.793,47.792a9.169,9.169,0,0,0,0,12.967l47.788,47.793A9.169,9.169,0,1,0,187.5,838.547L146.2,797.239,187.5,755.929a9.169,9.169,0,0,0-6.664-15.74Z" transform="translate(-124.062 -725.712)"/>
  <path id="Path_3" data-name="Path 3" class="cls-1" d="M313.32,740.19a9.169,9.169,0,0,0-6.388,15.744l41.307,41.309-41.307,41.309A9.169,9.169,0,0,0,319.9,851.52l47.788-47.794a9.169,9.169,0,0,0,0-12.966L319.9,742.971a9.17,9.17,0,0,0-6.579-2.779Z" transform="translate(-138.01 -725.713)"/>
  <path id="Path_4" data-name="Path 4" class="cls-1" d="M259.09,724.5a9.169,9.169,0,0,0-8.894,7.449l-25.7,125.071a9.169,9.169,0,1,0,17.963,3.69l25.7-125.071A9.169,9.169,0,0,0,259.09,724.5Z" transform="translate(-131.825 -724.497)"/>
</svg>
