<svg id="conferences" xmlns="http://www.w3.org/2000/svg" viewBox="0 0 195.699 153.686">
  <defs>
    <style>
      .cls-1 {
        fill: #fff;
      }
    </style>
  </defs>
  <circle id="Ellipse_1" data-name="Ellipse 1" class="cls-1" cx="6.377" cy="6.377" r="6.377" transform="translate(97.998 22.038)"/>
  <path id="Path_1" data-name="Path 1" class="cls-1" d="M842.694,467.41c-14.183,0-30.1,12.349-35.3,30.044h85.82c-5.206-17.7-21.121-30.044-35.3-30.044Z" transform="translate(-745.993 -343.773)"/>
  <path id="Path_2" data-name="Path 2" class="cls-1" d="M894.2,393.537a22.887,22.887,0,1,1-22.887-22.887A22.887,22.887,0,0,1,894.2,393.537Z" transform="translate(-767.01 -294.221)"/>
  <path id="Path_3" data-name="Path 3" class="cls-1" d="M981.234,480.69a25.351,25.351,0,0,0-13.944,4.674,47.393,47.393,0,0,1,10.158,18.208,2.44,2.44,0,0,1,.093.688h43.33c-4.084-13.885-16.589-23.57-27.7-23.57H981.234Z" transform="translate(-827.879 -350.574)"/>
  <path id="Path_4" data-name="Path 4" class="cls-1" d="M1007.219,422.709a17.954,17.954,0,1,1-17.956-17.959,17.954,17.954,0,0,1,17.956,17.959Z" transform="translate(-829.938 -311.684)"/>
  <path id="Path_5" data-name="Path 5" class="cls-1" d="M741.288,480.69c-11.129,0-23.614,9.69-27.7,23.57h43.325a2.439,2.439,0,0,1,.1-.688,47.4,47.4,0,0,1,10.158-18.208,25.314,25.314,0,0,0-13.944-4.674H741.288Z" transform="translate(-697.958 -350.574)"/>
  <path id="Path_6" data-name="Path 6" class="cls-1" d="M781.709,422.709a17.954,17.954,0,1,1-17.956-17.959,17.955,17.955,0,0,1,17.956,17.959Z" transform="translate(-714.453 -311.684)"/>
  <rect id="Rectangle_1" data-name="Rectangle 1" class="cls-1" width="195.699" height="63.202"/>
  <circle id="Ellipse_2" data-name="Ellipse 2" cx="15.51" cy="15.51" r="15.51" transform="translate(89.475 16.13)"/>
  <path id="Path_7" data-name="Path 7" class="cls-1" d="M218.9,59,207.6,52.47V65.521Z" transform="translate(-106.313 -26.87)"/>
</svg>
