<svg xmlns="http://www.w3.org/2000/svg" viewBox="0 0 170.007 161.151">
  <defs>
    <style>
      .cls-1 {
        fill: #fff;
      }
    </style>
  </defs>
  <path id="DeveloperClub" class="cls-1" d="M2425.182,2497.117l59.041,33.8,14.351-7.537V2463.2l-35.288,13.171a2.816,2.816,0,0,1-1.37.343h-50.438l-27.522,30.986,21.051,6.014,15.074-16.978a3.28,3.28,0,0,1,4.568-.267A4.363,4.363,0,0,1,2425.182,2497.117Zm-83.251,78.683,7.232-12.486-9.783-20.556a3.183,3.183,0,0,1-.381-1.484v-75.791h.038a3.195,3.195,0,0,1,5.367-2.36l24.21,21.965,2.7-5.139a3.247,3.247,0,0,1,3.046-1.713h27.141l6.014-6.776a3.213,3.213,0,0,1,2.512-1.218h51.314l39.323-14.656a3.168,3.168,0,0,1,4.111,1.865,3.05,3.05,0,0,1,.229,1.142v66.731a3.272,3.272,0,0,1-1.941,2.969l-12.219,6.434,16.521,9.44a3.238,3.238,0,0,1,1.218,4.416l-.114.153-11.42,19.756a3.224,3.224,0,0,1-4.378,1.18l-.152-.114-2.931-1.675-8.755,15.113a3.224,3.224,0,0,1-4.377,1.18l-.153-.114-4.492-2.588-8.679,15.074a3.279,3.279,0,0,1-4.416,1.18l-6.966-4.035-9.364,16.254a3.224,3.224,0,0,1-4.378,1.18l-19.566-11.306-8.717,15.113h-.038a3.135,3.135,0,0,1-4.34,1.142l-15.417-8.869c-.038-.038-.114-.038-.153-.076-.076-.038-.114-.076-.19-.114l-15.188-8.793c-.076-.038-.114-.038-.19-.076-.038-.038-.114-.076-.152-.115l-30.948-17.853A3.224,3.224,0,0,1,2341.931,2575.8Zm11.115-19.261,5.025-8.68a3.215,3.215,0,0,1,4.377-1.18l15.531,8.984h.038l15.341,8.87a.834.834,0,0,1,.19.114c.077.038.114.076.19.114l15.189,8.756c.076.038.114.076.19.114.038.038.114.076.152.114l15.227,8.756c.038.038.114.076.152.114a3.159,3.159,0,0,1,1.18,4.377l-4.187,7.233,16.787,9.745,7.765-13.476-10.049-5.824a3.224,3.224,0,0,1-1.18-4.378,3.269,3.269,0,0,1,4.416-1.18l19.794,11.42,7.08-12.258-19.794-11.42a3.223,3.223,0,0,1,3.2-5.6l22.383,12.943a.83.83,0,0,1,.19.115.815.815,0,0,1,.19.114l4.454,2.55,7.156-12.333-27.218-15.721a3.15,3.15,0,0,1-1.18-4.377,3.215,3.215,0,0,1,4.378-1.18l29.844,17.244c.038.039.114.039.152.076.076.038.114.076.19.115l2.893,1.675,8.3-14.313-78.455-44.918-14.427,16.178a3.219,3.219,0,0,1-3.35,1.028l-27.9-7.995a2.921,2.921,0,0,1-1.256-.685,3.2,3.2,0,0,1-.266-4.53l20.061-22.573h-19.681l-3.73,7.08a3.212,3.212,0,0,1-4.34,1.332,3.383,3.383,0,0,1-.838-.609l-21.736-19.719v67.8Zm8.984-2.7-6.319,10.963a3.433,3.433,0,0,1-.3.494l-6.319,10.925,10.011,5.748,12.9-22.345Zm15.531,8.984-12.9,22.383,9.973,5.748,12.943-22.345Zm15.569,8.984-12.9,22.383,9.974,5.748,12.9-22.345Zm15.569,8.984-12.943,22.383,10.012,5.748,12.9-22.345Z" transform="translate(-2339 -2455.372)"/>
</svg>
