<?xml version="1.0" ?><svg data-name="Layer 1" id="Layer_1" viewBox="0 0 256 256" xmlns="http://www.w3.org/2000/svg"><defs><style>.cls-1{fill:#fd0;}.cls-2{fill:#40bdff;}.cls-3{fill:#2197f7;}.cls-4{fill:#effafe;}.cls-5{fill:#eb5639;}.cls-6{fill:#d84936;}.cls-7{fill:#228ed6;}.cls-8{fill:#efc803;}.cls-9{fill:#e4ebed;}.cls-10{fill:#263238;}</style></defs><title/><path class="cls-1" d="M52.16,226.93l21.69-4.34a2,2,0,0,1,2.05.84l12.34,18.35L95,213.2l-38.73,3.73Z"/><path class="cls-1" d="M129.18,223.43a2,2,0,0,1,2.05-.84l21.69,4.34-4.12-10-43.73-3.73,11.77,28.58Z"/><path class="cls-2" d="M128.89,123.64a2,2,0,0,1-1.79,0l-48-26.51v34.63c.58,2.74,2,26.81,48.91,26.81,46.63,0,53.3-24.07,53.91-26.82V97.12Z"/><path class="cls-3" d="M176.92,99.62v32.13c-.6,2.7-7.05,25.95-51.42,26.79l2.51,0c46.63,0,53.3-24.07,53.91-26.82V97.12Z"/><path class="cls-1" d="M100.21,208.76l19.34,1.65v-28l-19.34,1.65a1.92,1.92,0,0,1-.34,0l-19.34-1.65v28l19.34-1.65Z"/><polygon class="cls-4" points="181.92 177.08 123.55 182.07 123.55 210.76 181.92 215.75 181.92 177.08"/><path class="cls-5" d="M229.51,162.56a12.35,12.35,0,0,0-12.34,12.34v14.34a12.34,12.34,0,0,0,24.68,0V174.9A12.35,12.35,0,0,0,229.51,162.56Z"/><path class="cls-6" d="M229.51,162.56a12.26,12.26,0,0,0-4,.68,12.35,12.35,0,0,1,8.34,11.66v14.34a12.35,12.35,0,0,1-8.34,11.66,12.31,12.31,0,0,0,16.34-11.66V174.9A12.35,12.35,0,0,0,229.51,162.56Z"/><polygon class="cls-3" points="241.38 65.92 136 12.24 28.62 65.92 136 119.61 241.38 65.92"/><polygon class="cls-7" points="136 12.24 128.43 16.02 226.38 65.92 128.43 115.83 136 119.61 241.38 65.92 136 12.24"/><polygon class="cls-4" points="76.53 182.07 23.15 177.08 23.15 215.75 76.53 210.75 76.53 182.07"/><polygon class="cls-8" points="114.55 182.84 114.55 209.99 119.55 210.41 119.55 182.41 114.55 182.84"/><polygon class="cls-9" points="176.92 177.51 176.92 215.32 181.92 215.75 181.92 177.08 176.92 177.51"/><polygon class="cls-9" points="23.15 177.08 23.15 177.55 71.53 182.07 71.53 210.75 23.15 215.28 23.15 215.75 76.53 210.75 76.53 182.07 23.15 177.08"/><path class="cls-10" d="M15,68.16,69.58,95.43v36.45a2.51,2.51,0,0,0,0,.41c.21,1.26,5.73,30.77,58.39,30.77s58.18-29.51,58.39-30.77a2.51,2.51,0,0,0,0-.41V95.43L223,77.14v81.13a16.85,16.85,0,0,0-14.34,16.63v14.34a16.85,16.85,0,0,0,12.77,16.32L209,226.69a2.5,2.5,0,0,0,4.31,2.54L223,212.76V228a2.5,2.5,0,0,0,5,0v-15.2l9.68,16.46a2.5,2.5,0,0,0,4.31-2.54l-12.43-21.13a16.85,16.85,0,0,0,12.77-16.32V174.9A16.85,16.85,0,0,0,228,158.27V74.64l13-6.48a2.5,2.5,0,0,0,0-4.47L129.12,7.76a2.5,2.5,0,0,0-2.24,0L15,63.69A2.5,2.5,0,0,0,15,68.16Zm166.39,63.48c-.5,2.25-7,26.42-53.42,26.42-46.65,0-52.9-23.93-53.42-26.42V97.93l52.31,26.15a2.5,2.5,0,0,0,2.24,0l52.31-26.15Zm55.92,43.26v14.34a11.85,11.85,0,0,1-11.84,11.84h0a11.85,11.85,0,0,1-11.84-11.84V174.9a11.84,11.84,0,1,1,23.68,0ZM128,12.79,234.26,65.92,128,119.05,21.74,65.92Z"/><path class="cls-10" d="M16.36,220.41,46,217.88l-4.45,10.79a2.5,2.5,0,0,0,2.8,3.4l23.72-4.75,13.5,20.07A2.5,2.5,0,0,0,86,247l13.86-33.67.2,0,.2,0L114.1,247a2.5,2.5,0,0,0,4.39.44L132,227.33l23.72,4.75a2.5,2.5,0,0,0,2.8-3.4l-4.45-10.79,29.65,2.53h.21a2.5,2.5,0,0,0,2.5-2.5v-43a2.5,2.5,0,0,0-2.71-2.49L100,179.56l-83.67-7.15a2.5,2.5,0,0,0-2.71,2.49v43A2.5,2.5,0,0,0,16.36,220.41Zm66.76,20.31L71.31,223.15a2.5,2.5,0,0,0-2.57-1.06L48,226.26l3.65-8.85,42.61-3.64Zm48.2-18.63a2.49,2.49,0,0,0-2.57,1.06l-11.82,17.57-11.1-27,42.61,3.64,3.65,8.85ZM124,182.53l57.38-4.9V215.2l-31-2.65h0L124,210.3ZM81,183l18.8,1.61a2.38,2.38,0,0,0,.43,0L119,183v26.91l-18.8-1.61h-.43L81,209.87Zm-62.38-5.33L76,182.53V210.3l-57.38,4.9Z"/><path class="cls-1" d="M33,92.25H29v-4a1,1,0,0,0-2,0v4H23a1,1,0,1,0,0,2h4v4a1,1,0,0,0,2,0v-4h4a1,1,0,0,0,0-2Z"/><path class="cls-1" d="M214.26,124.1h-4v-4a1,1,0,0,0-2,0v4h-4a1,1,0,0,0,0,2h4v4a1,1,0,0,0,2,0v-4h4a1,1,0,1,0,0-2Z"/><path class="cls-2" d="M199,16.14h-4v-4a1,1,0,1,0-2,0v4h-4a1,1,0,0,0,0,2h4v4a1,1,0,0,0,2,0v-4h4a1,1,0,0,0,0-2Z"/><path class="cls-2" d="M43,23.73a6,6,0,1,1,6-6A6,6,0,0,1,43,23.73Zm0-10a4,4,0,1,0,4,4A4,4,0,0,0,43,13.73Z"/><path class="cls-1" d="M28,165.15a6,6,0,1,1,6-6A6,6,0,0,1,28,165.15Zm0-10a4,4,0,1,0,4,4A4,4,0,0,0,28,155.15Z"/><path class="cls-1" d="M226,40a6,6,0,1,1,6-6A6,6,0,0,1,226,40Zm0-10a4,4,0,1,0,4,4A4,4,0,0,0,226,30Z"/><path class="cls-2" d="M253.5,106.21h-2.59l1.83-1.83a1,1,0,0,0-1.41-1.41l-1.83,1.83v-2.59a1,1,0,1,0-2,0v2.59L245.67,103a1,1,0,0,0-1.41,1.41l1.83,1.83H243.5a1,1,0,0,0,0,2h2.59L244.26,110a1,1,0,0,0,1.41,1.41l1.83-1.83v2.59a1,1,0,0,0,2,0v-2.59l1.83,1.83a1,1,0,0,0,1.41-1.41l-1.83-1.83h2.59a1,1,0,0,0,0-2Z"/><path class="cls-2" d="M193,232.5h-2.59l1.83-1.83a1,1,0,0,0-1.41-1.41L189,231.09V228.5a1,1,0,0,0-2,0v2.59l-1.83-1.83a1,1,0,0,0-1.41,1.41l1.83,1.83H183a1,1,0,0,0,0,2h2.59l-1.83,1.83a1,1,0,0,0,1.41,1.41l1.83-1.83v2.59a1,1,0,0,0,2,0v-2.59l1.83,1.83a1,1,0,0,0,1.41-1.41l-1.83-1.83H193a1,1,0,0,0,0-2Z"/><path class="cls-2" d="M22.15,232.5H19.57l1.83-1.83A1,1,0,0,0,20,229.26l-1.83,1.83V228.5a1,1,0,0,0-2,0v2.59l-1.83-1.83a1,1,0,0,0-1.41,1.41l1.83,1.83H12.15a1,1,0,0,0,0,2h2.59l-1.83,1.83a1,1,0,0,0,1.41,1.41l1.83-1.83v2.59a1,1,0,0,0,2,0v-2.59L20,237.74a1,1,0,0,0,1.41-1.41l-1.83-1.83h2.59a1,1,0,1,0,0-2Z"/></svg>