<svg xmlns="http://www.w3.org/2000/svg" viewBox="0 0 187.693 187.74">
  <defs>
    <style>
      .cls-1 {
        fill-rule: evenodd;
      }
    </style>
  </defs>
  <g id="variousMeetups" transform="translate(-1678.989 -765.989)">
    <path id="Path_108" data-name="Path 108" class="cls-1" d="M48.7,1000.649V966.427l.353-1.411.706-1.058,1.058-1.058,1.411-.705,1.764-.706H86.1v1.058l.353,1.411.353,1.411.706,1.058.706,1.411.706,1.058,1.058,1.058,1.058,1.411H82.922l-1.764.706-1.764.706-1.764,1.411L76.219,975.6l-1.058,1.764-.706,2.117L74.1,981.6v19.052H62.812V974.894H57.873v25.755H48.7Zm30.341,11.643V981.245l.353-1.411.706-1.058,1.058-1.058,1.058-.706,1.058-.706,1.411-.353h31.753l1.411.353,1.411.706,1.058.706.706,1.058.706,1.058.353,1.058v31.4h-6.7V987.243h-4.939v25.049h-19.4V987.243H85.745v25.049h-6.7Zm73.384-11.643V967.838l-.353-1.411-.353-1.411-.706-1.058-.706-1.058-1.411-.706-1.764-.706H115.028v1.058l-.353,1.411-.706,1.411-.353,1.058-.706,1.411-1.058,1.058-.706,1.058-1.058,1.411h7.762l2.117.705,1.764.706,1.764,1.411,1.411,1.411,1.058,1.764.706,2.117.353,2.117v19.052h11.29V974.894h4.939v25.755h9.173Zm-22.58-65.269h2.117l1.764.706,1.764,1.058L136.9,938.2l1.411,1.411.706,1.764.706,1.764v4.234l-.706,1.764-.706,1.764-1.411,1.411-1.411,1.411-1.764.706-1.764.706h-4.234l-1.764-.706-1.764-.706-1.411-1.411-1.411-1.411-.706-1.764-.706-1.764-.353-2.117.353-2.117.706-1.764.706-1.764,1.411-1.411,1.411-1.058,1.764-1.058,1.764-.706h2.117ZM100.563,950.2h2.117l1.764.706,1.764.706,1.411,1.411,1.411,1.411.706,1.764.706,1.764.353,2.117-.353,2.117-.706,1.764-.706,1.764-1.411,1.411-1.411,1.058-1.764,1.058-1.764.706H98.446l-1.764-.706-1.764-1.058-1.411-1.058-1.058-1.411-1.058-1.764-.706-1.764v-4.234l.706-1.764,1.058-1.764,1.058-1.411,1.411-1.411,1.764-.706,1.764-.706ZM70.574,935.027l2.117.353,1.764.353,1.764,1.058,1.764,1.058,1.058,1.411,1.058,1.764.353,2.117.353,1.764-.353,2.117-.353,1.764-1.058,1.764-1.058,1.411-1.764,1.411-1.764.706-1.764.706-2.117.353-1.764-.353-2.117-.706-1.764-.706-1.411-1.411-1.058-1.411L61.4,948.786l-.706-1.764v-3.881l.706-2.117,1.058-1.764,1.058-1.411,1.411-1.058,1.764-1.058,2.117-.353Zm30.341-14.465,2.117.353,3.528,1.411,1.411,1.411,1.411,1.411.706,1.764.706,1.764v3.881l-.706,2.117-.706,1.764-1.411,1.411-1.411,1.058-1.764,1.058-1.764.706H98.8l-1.764-.706-1.764-1.058-1.411-1.058-1.411-1.411-.706-1.764-.706-2.117-.353-1.764.353-2.117.706-1.764.706-1.764,2.822-2.823,1.764-.706,1.764-.706,2.117-.353" transform="translate(1672.273 -106.589)"/>
    <path id="Path_109" data-name="Path 109" class="cls-1" d="M20.056,879.76,13,886.463l31.753,31.752H22.526l9.526,9.526h28.93V899.164l-9.526-9.526v21.874l-31.4-31.753" transform="translate(1665.989 -113.771)"/>
    <path id="Path_110" data-name="Path 110" class="cls-1" d="M179.429,1039.878l-6.7,6.7-31.4-31.4v21.874l-9.526-9.879V998.6h28.577l9.879,9.526H148.029l31.4,31.753" transform="translate(1686.901 -92.852)"/>
    <path id="Path_111" data-name="Path 111" class="cls-1" d="M179.782,886.816l-6.7-7.056-31.753,31.753V889.286l-9.526,9.526v28.93h28.93l9.526-9.526H148.029l31.753-31.4" transform="translate(1686.901 -113.771)"/>
    <path id="Path_112" data-name="Path 112" class="cls-1" d="M19.7,1046.582l-6.7-6.7,31.4-31.753H22.526l9.526-9.526h28.93v28.93l-9.526,9.526v-22.227L19.7,1046.582" transform="translate(1665.989 -92.852)"/>
  </g>
</svg>
