<svg id="opensource" xmlns="http://www.w3.org/2000/svg" viewBox="0 0 289.781 193.12">
  <defs>
    <style>
      .cls-1 {
        fill: #fff;
      }
    </style>
  </defs>
  <g id="Group_1" data-name="Group 1" transform="translate(132.711 41.138)">
    <path id="Path_71" data-name="Path 71" class="cls-1" d="M114.681,198.943l-7.12.266q1.177,38.194.482,49.293a9.524,9.524,0,0,0,.471,3.118,5.13,5.13,0,0,0,3.426,3.263,8.1,8.1,0,0,0,2.133.321q9-.451,11.332.154,3.744.648,4.8,2.827,1.385,2.769.395,9.674-.65,5.309-4.737,20.882a3.563,3.563,0,0,0,6.939,1.393q3.2-11.7,4.169-17.122a52.541,52.541,0,0,0,1.079-10.967q-.07-8.2-5.679-11.634-5.106-3.33-17.207-2.351.7-10.921-.478-48.936" transform="translate(-107.561 -198.943)"/>
  </g>
  <g id="Group_2" data-name="Group 2" transform="translate(115.95 89.733)">
    <path id="Path_72" data-name="Path 72" class="cls-1" d="M9.516,539.959q-10.615,21.5-14.3,37.294-2.691,10.761-5.26,31.452a3.563,3.563,0,0,0,2.007,3.578q3.389,1.157,4.9-2.038l1.99-13.964q.63-4.192,1.274-7.74,1.424-7.895,3.269-14.4,3.759-13.3,12.521-31.065l-6.368-3.1" transform="translate(10.053 -539.959)"/>
  </g>
  <g id="Group_3" data-name="Group 3" transform="translate(112.868 46.464)">
    <path id="Path_73" data-name="Path 73" class="cls-1" d="M-11.375,236.316Q-26.091,242-29.917,251.227a27.94,27.94,0,0,0-1.762,11.245,100.458,100.458,0,0,0,2.259,17.349A3.566,3.566,0,0,0-26.1,282a3.561,3.561,0,0,0,3.263-2.227,3.541,3.541,0,0,0,.244-1.672,122.475,122.475,0,0,1-1.937-14.721,25.614,25.614,0,0,1,.6-7.673q1.677-7.553,15.353-12.863l-2.792-6.507" transform="translate(31.687 -236.316)"/>
  </g>
  <g id="Group_4" data-name="Group 4" transform="translate(132.234 46.452)">
    <path id="Path_74" data-name="Path 74" class="cls-1" d="M111.205,236.234l-6.991,1.374q4.14,23.293,9.761,30.41a14.333,14.333,0,0,0,11.474,5.765,35.141,35.141,0,0,0,8.882-1.029,3.563,3.563,0,0,0-1.707-6.806,51.727,51.727,0,0,1-5.694.7,12.544,12.544,0,0,1-2.713-.136,7.1,7.1,0,0,1-4.635-2.891q-4.486-5.82-8.366-27.329" transform="translate(-104.214 -236.234)"/>
  </g>
  <g id="Group_5" data-name="Group 5" transform="translate(116.681 9.168)">
    <path id="Path_75" data-name="Path 75" class="cls-1" d="M13.658-18.28a11.375,11.375,0,0,1,8.078,3.4,11.38,11.38,0,0,1,3.28,8.056A11.376,11.376,0,0,1,21.6,1.269a11.381,11.381,0,0,1-8.058,3.269A11.374,11.374,0,0,1,5.471,1.127,11.381,11.381,0,0,1,2.2-6.933a11.374,11.374,0,0,1,3.369-8.033A11.379,11.379,0,0,1,13.6-18.28M13.69-25.4A18.488,18.488,0,0,0,.583-20.057,18.478,18.478,0,0,0-4.926-6.99,18.489,18.489,0,0,0,.4,6.131,18.478,18.478,0,0,0,13.5,11.663,18.488,18.488,0,0,0,26.618,6.33,18.478,18.478,0,0,0,32.141-6.733a18.489,18.489,0,0,0-5.31-13.126,18.479,18.479,0,0,0-13.1-5.546" transform="translate(4.926 25.405)"/>
  </g>
  <g id="Group_6" data-name="Group 6" transform="translate(0 75.744)">
    <path id="Path_76" data-name="Path 76" class="cls-1" d="M-577.59,441.794q-2.687,0-3.909,2.9l-.276,10.456-33.2,1a4.081,4.081,0,0,0-2.155.813,4.081,4.081,0,0,0-1.621,3.365l1.683,12.821-30.074,1.53a4.074,4.074,0,0,0-2.166.887,4.076,4.076,0,0,0-1.395,2.187l-3.865,17.336-21.191,1.122a4.08,4.08,0,0,0-2.9,1.733l-3.763,23.958-26.341,2.575a4.083,4.083,0,0,0-2.579,1.28l-7.047,21.536-105.35,3.725.409,8.153,107.82-3.795a4.307,4.307,0,0,0,1.762-.335,4.081,4.081,0,0,0,2.2-2.263l6.294-20.437,27.272-2.679a4.075,4.075,0,0,0,2.453-1.362,4.074,4.074,0,0,0,.942-2.026l2.872-21.973,20.694-1.1a4.077,4.077,0,0,0,2.667-1.234,4.071,4.071,0,0,0,1.01-1.782l4-17.528,31.137-1.541a4.082,4.082,0,0,0,1.669-.461,4.081,4.081,0,0,0,2.181-3.467l-1.617-13.027,32.712-.982a4.063,4.063,0,0,0,2.518-.981,4.074,4.074,0,0,0,1.42-2.9l-.235-14.018a4.083,4.083,0,0,0-3.766-3.476" transform="translate(823.736 -441.794)"/>
  </g>
  <g id="Group_7" data-name="Group 7" transform="translate(222.843 0)">
    <path id="Path_77" data-name="Path 77" class="cls-1" d="M761.273-89.742q-8.794.047-14.7,4.6A16.632,16.632,0,0,0,740.125-73.1q-.444,6.18,2.633,13.963a35.61,35.61,0,0,0,2.578,5.167,58.591,58.591,0,0,0,5.089,6.713,8.17,8.17,0,0,1,1.206,2.547q1.1,3.826-.1,13.983l5.3.615q1.415-11.031-.086-16.231a13.585,13.585,0,0,0-1.647-3.576,61.132,61.132,0,0,0-4.261-5.466,23.734,23.734,0,0,1-1.836-3,34.334,34.334,0,0,1-3.139-8.984q-1.373-6.949,1.618-11.027,4.739-6.347,15.319-5.933,11.692,1.112,15.044,7.756,2.438,5.183-.958,15.2a28.81,28.81,0,0,1-2.6,5.44,21.088,21.088,0,0,1-1.853,2.5,46.29,46.29,0,0,0-4.579,5.02,8.917,8.917,0,0,0-1.613,3.832q-.616,3.427.99,9.359l.784,2.842.223.5a2.685,2.685,0,0,0,1.666,1.266,2.681,2.681,0,0,0,3.318-2.234,2.668,2.668,0,0,0-.034-.921,55.344,55.344,0,0,1-1.648-7.032,7.519,7.519,0,0,1,.152-3.536,4.95,4.95,0,0,1,.95-1.508,54.583,54.583,0,0,0,4.911-5.4,26.8,26.8,0,0,0,2.685-4.361,39.229,39.229,0,0,0,3.9-13.773q.829-8.99-5.126-14.391-6.7-5.714-17.677-5.971" transform="translate(-740.069 89.742)"/>
  </g>
  <g id="Group_8" data-name="Group 8" transform="translate(232.31 53.803)">
    <path id="Path_78" data-name="Path 78" class="cls-1" d="M824.309,296.064l-.265,7.878-8.178.4-.794-8.089,9.212-.187m4.186-8.244-18.294.365a4.081,4.081,0,0,0-3.672,4.281l1.69,17.005a4.082,4.082,0,0,0,4.021,3.209l16.329-.785a4.08,4.08,0,0,0,3.522-3.773l.541-16a4.181,4.181,0,0,0-.027-.729,4.081,4.081,0,0,0-4.107-3.573" transform="translate(-806.5 -287.821)"/>
  </g>
  <g id="Group_9" data-name="Group 9" transform="translate(242.921 29.853)">
    <path id="Path_79" data-name="Path 79" class="cls-1" d="M883.407,119.752a2.416,2.416,0,0,0-2.44,2.242q-.007.1-.006.212l.261,25.227,4.823-.083-.254-25.156a2.591,2.591,0,0,0-.012-.26,2.415,2.415,0,0,0-2.367-2.182" transform="translate(-880.961 -119.752)"/>
  </g>
  <g id="Group_10" data-name="Group 10" transform="translate(201.199 18.515)">
    <path id="Path_80" data-name="Path 80" class="cls-1" d="M590.627,40.186a2.415,2.415,0,0,0-1.184,4.541l13,6.889a2.415,2.415,0,0,0,2.26-4.269l-13-6.889a2.4,2.4,0,0,0-1.052-.272" transform="translate(-588.179 -40.186)"/>
  </g>
  <g id="Group_11" data-name="Group 11" transform="translate(202.335 7.537)">
    <path id="Path_81" data-name="Path 81" class="cls-1" d="M598.6-36.851a2.415,2.415,0,0,0-2.253,1.453,2.417,2.417,0,0,0,.485,2.649,2.414,2.414,0,0,0,.589.443l9.988,5.186a2.4,2.4,0,0,0,1.024.259,2.415,2.415,0,0,0,2.281-1.454,2.417,2.417,0,0,0-.488-2.649,2.409,2.409,0,0,0-.59-.442l-9.988-5.186a2.4,2.4,0,0,0-1.024-.258" transform="translate(-596.148 36.851)"/>
  </g>
  <g id="Group_12" data-name="Group 12" transform="translate(271.5 11.417)">
    <path id="Path_82" data-name="Path 82" class="cls-1" d="M1095.41-9.626a2.4,2.4,0,0,0-1.04.231l-11.508,5.607a2.4,2.4,0,0,0-.553.376,2.415,2.415,0,0,0-.634,2.652,2.415,2.415,0,0,0,2.232,1.554,2.4,2.4,0,0,0,1.07-.238l11.507-5.606a2.4,2.4,0,0,0,.53-.362,2.418,2.418,0,0,0,.644-2.651,2.415,2.415,0,0,0-2.222-1.561" transform="translate(-1081.519 9.626)"/>
  </g>
  <g id="Group_13" data-name="Group 13" transform="translate(272.543 23.837)">
    <path id="Path_83" data-name="Path 83" class="cls-1" d="M1103.683,77.534a2.4,2.4,0,0,0-.785.127l-12.439,4.208a2.415,2.415,0,0,0,1.562,4.571l12.439-4.208a2.416,2.416,0,0,0-.754-4.7" transform="translate(-1088.837 -77.534)"/>
  </g>
</svg>
