<svg width="512" height="600" xmlns="http://www.w3.org/2000/svg">

 <g>
  <title>background</title>
  <rect fill="none" id="canvas_background" height="602" width="514" y="-1" x="-1"/>
 </g>
 <g>
  <title>Layer 1</title>
  <path stroke="null" fill="#1c42a0" id="svg_2" fill-rule="evenodd" clip-rule="evenodd" d="m130.069056,360.497515c-4.015538,0 -7.66153,1.704003 -10.322064,4.477349c-2.633272,2.745981 -4.281087,6.561305 -4.281087,10.732376l0,111.81058l29.195195,0l0,-111.81058c0,-4.09529 -1.587233,-7.859042 -4.135692,-10.605023l-0.159531,-0.127353c-2.635292,-2.773346 -6.296429,-4.477349 -10.296822,-4.477349m70.834824,4.477349c-2.650437,-2.773346 -6.296429,-4.477349 -10.322064,-4.477349c-4.000393,0 -7.66052,1.704003 -10.297832,4.451036c-2.657505,2.773346 -4.294213,6.58867 -4.294213,10.759741l0,111.81058l29.195195,0l0,-111.811632c0,-4.09529 -1.587233,-7.859042 -4.134682,-10.605023l-0.146405,-0.127353zm50.213919,-4.477349c-4.014529,0 -7.674656,1.704003 -10.310957,4.477349c-2.647408,2.745981 -4.291184,6.561305 -4.291184,10.732376l0,111.81058l29.191157,0l0,-111.81058c0,-4.09529 -1.584204,-7.859042 -4.135692,-10.605023l-0.145395,-0.127353c-2.646398,-2.773346 -6.306526,-4.477349 -10.307928,-4.477349zm60.524876,0c-4.015538,0 -7.66153,1.704003 -10.308938,4.477349c-2.646398,2.745981 -4.284116,6.561305 -4.284116,10.732376l0,111.81058l29.184089,0l0,-111.81058c0,-4.09529 -1.573098,-7.859042 -4.123575,-10.605023l-0.159531,-0.127353c-2.647408,-2.773346 -6.2934,-4.477349 -10.307928,-4.477349zm60.521847,0c-4.000393,0 -7.66052,1.704003 -10.307928,4.477349c-2.636301,2.745981 -4.280077,6.561305 -4.280077,10.732376l0,111.81058l29.195195,0l0,-111.81058c0,-4.09529 -1.587233,-7.859042 -4.13973,-10.605023l-0.155492,-0.127353c-2.636301,-2.773346 -6.296429,-4.477349 -10.311967,-4.477349zm0,-6.256079c5.67345,0 10.835996,2.416548 14.557715,6.307652l0.180735,0.203133c3.613682,3.865845 5.857214,9.155726 5.857214,14.955019l0,111.81058l18.078505,0l0,-183.255554l-319.442793,0l0,183.256607l18.078505,0l0,-111.811632c0,-5.900333 2.317239,-11.267047 6.041987,-15.158152c3.720709,-3.891105 8.86912,-6.307652 14.553676,-6.307652c5.662343,0 10.807725,2.416548 14.54257,6.307652l0.184773,0.203133c3.620749,3.865845 5.86832,9.155726 5.86832,14.955019l0,111.81058l19.322444,0l0,-111.81058c0,-5.900333 2.317239,-11.267047 6.053093,-15.158152c3.744941,-3.891105 8.894362,-6.307652 14.54257,-6.307652c5.683547,0 10.832967,2.416548 14.553676,6.307652l0.184773,0.203133c3.610653,3.865845 5.857214,9.155726 5.857214,14.955019l0,111.81058l19.347686,0l0,-111.81058c0,-5.900333 2.317239,-11.267047 6.037948,-15.158152c3.734844,-3.891105 8.883255,-6.307652 14.556705,-6.307652c5.67345,0 10.82287,2.416548 14.54257,6.307652l0.180735,0.203133c3.625798,3.865845 5.86933,9.155726 5.86933,14.955019l0,111.81058l19.336579,0l0,-111.81058c0,-5.900333 2.321278,-11.267047 6.040977,-15.158152c3.730806,-3.891105 8.880226,-6.307652 14.553676,-6.307652c5.67244,0 10.821861,2.416548 14.552667,6.307652l0.184773,0.203133c3.610653,3.865845 5.857214,9.155726 5.857214,14.955019l0,111.81058l19.337589,0l0,-111.81058c0,-5.900333 2.317239,-11.267047 6.048045,-15.158152c3.720709,-3.891105 8.866091,-6.307652 14.538531,-6.307652zm-299.386304,147.138905l356.668055,0l0,-7.605389c-118.888006,0 -237.765914,0 -356.668055,0l0,7.605389zm365.621989,6.257132c-124.854266,0 -249.710551,0 -374.576933,0l0,20.600646l374.576933,0l0,-20.600646zm-363.414806,-298.272059c1.317646,1.169331 2.366714,2.645993 3.036139,4.374204c2.112272,0.432579 4.015538,1.527182 5.492715,3.078572c1.658921,1.730315 2.792803,4.04477 3.086623,6.612878c1.79321,0.533619 3.401647,1.52613 4.69506,2.872281c1.952741,2.036594 3.175476,4.859408 3.175476,7.961135c0,3.002792 -1.148018,5.748773 -3.001809,7.758002l-0.173667,0.228393c-1.949712,2.036594 -4.670827,3.308018 -7.66153,3.308018l-43.454042,0c-2.979596,0 -5.686576,-1.271424 -7.639317,-3.308018c-1.962838,-2.059749 -3.171437,-4.882563 -3.171437,-7.986395c0,-1.425089 0.269587,-2.847021 0.768374,-4.144758l0.084814,-0.229446c0.340266,-0.863053 0.803713,-1.678743 1.342888,-2.416548l-0.049475,-1.068291c0,-3.356433 1.283316,-6.435005 3.356211,-8.69894l0.205977,-0.229446c2.197086,-2.289195 5.233225,-3.713232 8.589436,-3.713232l0.549272,0c0.453351,-2.5439 1.647815,-4.857303 3.356211,-6.638138c2.221319,-2.289195 5.244331,-3.713232 8.589436,-3.713232c2.108233,0 4.121556,0.585192 5.878417,1.57665c1.023826,0.610452 1.952741,1.348257 2.77059,2.212362l0.255452,-0.074728c0.964254,-0.281018 1.952741,-0.432579 2.927092,-0.432579c2.660534,0 5.101965,1.017771 6.991096,2.671253zm261.886406,-115.345938c0.7189,-1.933449 1.89216,-3.636399 3.381453,-4.960448c2.061788,-1.805043 4.733428,-2.899647 7.636288,-2.899647c1.084407,0 2.157708,0.153665 3.19668,0.457839l0.498787,0.153665c0.928915,-1.016718 2.027458,-1.907136 3.210815,-2.594421c1.913363,-1.092498 4.096314,-1.730315 6.427689,-1.730315c3.661137,0 6.992105,1.577702 9.394159,4.07003c1.952741,2.035541 3.295629,4.67943 3.744941,7.630649l0.940022,-0.026313c3.675273,0 6.992105,1.552442 9.394159,4.07003c2.417199,2.51864 3.915579,5.978219 3.915579,9.793543l-0.070678,1.295632c0.61995,0.839898 1.158115,1.780836 1.558962,2.773346c0.599756,1.50087 0.928915,3.12804 0.928915,4.781522c0,3.382746 -1.318656,6.460265 -3.466267,8.69894c-2.123379,2.238674 -5.0848,3.612191 -8.34509,3.612191l-48.956854,0c-3.246154,0 -6.197479,-1.373517 -8.34509,-3.612191c-2.136505,-2.213414 -3.466267,-5.288829 -3.466267,-8.69894c0,-3.382746 1.318656,-6.460265 3.45516,-8.69894c1.463041,-1.52613 3.305726,-2.645993 5.364485,-3.204872c0.283723,-2.900699 1.527661,-5.519327 3.405685,-7.476983c1.645795,-1.730315 3.793407,-2.951219 6.196469,-3.434318zm-248.477719,203.985659l325.446411,0l0.088853,0l12.685749,0l0,-21.441597l-33.45104,0l-0.085824,0l-283.918859,0l-0.084814,0l-33.465176,0l0,21.441597l12.699885,0l0.084814,0zm75.395595,-51.48004c0,1.704003 -1.339859,3.129092 -3.001809,3.129092c-1.647815,0 -3.001809,-1.425089 -3.001809,-3.129092c0,-18.235672 4.819252,-35.277805 13.164342,-49.826557c8.664153,-15.107632 21.143925,-27.547168 35.991421,-35.861944c1.452944,-0.814638 3.281494,-0.254706 4.050878,1.270371c0.779481,1.50087 0.230209,3.408006 -1.208599,4.222643c-13.919591,7.809574 -25.608775,19.432368 -33.695385,33.548542c-7.809955,13.608867 -12.299038,29.530084 -12.299038,46.646945zm87.328115,-91.029955c-1.66195,0 -3.0008,-1.398777 -3.0008,-3.129092s1.338849,-3.129092 3.0008,-3.129092c25.765277,0 49.103259,10.887094 65.987301,28.487053s27.331307,41.942255 27.331307,68.800034c0,1.704003 -1.342888,3.129092 -2.991712,3.129092c-1.658921,0 -3.001809,-1.425089 -3.001809,-3.129092c0,-25.128516 -9.782889,-47.893109 -25.583533,-64.37531c-15.795595,-16.454836 -37.634187,-26.653593 -61.741553,-26.653593zm102.394714,1.271424c-1.233842,-1.169331 -1.318656,-3.129092 -0.205977,-4.400516c1.119747,-1.297737 3.012916,-1.374569 4.231612,-0.229446c14.652626,13.964613 27.610991,32.582344 36.441743,51.861046c8.538951,18.61773 13.273389,37.949058 12.078925,54.379686c-0.123182,1.729263 -1.561991,3.025947 -3.209806,2.899647c-1.644786,-0.127353 -2.878627,-1.628223 -2.756455,-3.357485c1.112679,-15.337078 -3.39155,-33.548542 -11.492295,-51.225334c-8.515728,-18.566158 -20.985404,-36.497656 -35.087748,-49.927598zm-309.696252,383.706907c-1.66195,0 -3.001809,-1.398777 -3.001809,-3.129092c0,-1.704003 1.339859,-3.129092 3.001809,-3.129092l295.556549,0c1.658921,0 3.001809,1.425089 3.001809,3.129092c0,1.730315 -1.342888,3.129092 -3.001809,3.129092l-295.556549,0zm173.068998,11.548066c-1.657911,0 -3.0008,-1.399829 -3.0008,-3.129092c0,-1.730315 1.342888,-3.129092 3.0008,-3.129092l204.520851,0c1.658921,0 3.001809,1.398777 3.001809,3.129092c0,1.729263 -1.342888,3.129092 -3.001809,3.129092l-204.520851,0zm225.45577,0c-1.658921,0 -3.001809,-1.399829 -3.001809,-3.129092c0,-1.730315 1.342888,-3.129092 3.001809,-3.129092l25.569398,0c1.647815,0 3.001809,1.398777 3.001809,3.129092c0,1.729263 -1.353995,3.129092 -3.001809,3.129092l-25.569398,0zm-410.164477,-0.356799c-1.658921,0 -3.001809,-1.398777 -3.001809,-3.129092c0,-1.704003 1.342888,-3.129092 3.001809,-3.129092l96.918154,0c1.643776,0 3.001809,1.425089 3.001809,3.129092c0,1.730315 -1.357024,3.129092 -3.001809,3.129092l-96.918154,0zm409.909026,-278.941784c0,-1.729263 1.353995,-3.129092 3.001809,-3.129092c1.658921,0 3.001809,1.399829 3.001809,3.129092l0,41.967515c0,1.730315 -1.342888,3.12804 -3.001809,3.12804l-12.774602,0l0,117.178346c0,1.730315 -1.342888,3.129092 -3.0008,3.129092c-1.658921,0 -3.001809,-1.398777 -3.001809,-3.129092l0,-120.306386c0,-1.730315 1.342888,-3.12804 3.001809,-3.12804l12.773592,0l0,-38.839476zm-92.708755,-101.712863c-24.486,-25.536887 -58.071329,-41.586509 -95.257213,-42.400094l0,-27.315617l24.837372,0c1.66195,0 3.001809,-1.399829 3.001809,-3.129092l0,-20.1186c0,-1.731368 -1.339859,-3.129092 -3.001809,-3.129092l-24.837372,0l0,-3.916365c0,-1.731368 -1.357024,-3.129092 -3.001809,-3.129092c-1.66195,0 -3.0008,1.397724 -3.0008,3.129092l0,57.607714c-37.185885,0.813585 -70.774243,16.863207 -95.260242,42.400094c-24.496097,25.510574 -39.892864,60.533673 -40.672345,99.296316l277.867784,0c-0.793617,-38.76159 -16.179278,-73.784689 -40.675374,-99.295263z"/>
 </g>
</svg>