<?xml version="1.0" ?><!DOCTYPE svg  PUBLIC '-//W3C//DTD SVG 1.1//EN'  'http://www.w3.org/Graphics/SVG/1.1/DTD/svg11.dtd'><svg height="512px" style="enable-background:new 0 0 512 512;" version="1.1" viewBox="0 0 512 512" width="512px" xml:space="preserve" xmlns="http://www.w3.org/2000/svg" xmlns:xlink="http://www.w3.org/1999/xlink"><g id="_x32_73_x2C__Library_x2C__school_x2C__education_x2C__learning_x2C__university"><g><path d="M137.177,304.029c-3.977,0-7.588,1.619-10.223,4.254    c-2.608,2.609-4.24,6.234-4.24,10.197v106.233h28.915V318.48c0-3.891-1.572-7.467-4.096-10.076l-0.158-0.121    C144.765,305.648,141.139,304.029,137.177,304.029 M207.332,308.283c-2.625-2.635-6.236-4.254-10.223-4.254    c-3.962,0-7.587,1.619-10.199,4.229c-2.632,2.635-4.253,6.26-4.253,10.223v106.233h28.915V318.48    c0-3.891-1.572-7.467-4.095-10.076L207.332,308.283z M257.064,304.029c-3.976,0-7.601,1.619-10.212,4.254    c-2.622,2.609-4.25,6.234-4.25,10.197v106.233h28.911V318.48c0-3.891-1.569-7.467-4.096-10.076l-0.144-0.121    C264.652,305.648,261.027,304.029,257.064,304.029z M317.008,304.029c-3.977,0-7.588,1.619-10.21,4.254    c-2.621,2.609-4.243,6.234-4.243,10.197v106.233h28.904V318.48c0-3.891-1.558-7.467-4.084-10.076l-0.158-0.121    C324.595,305.648,320.984,304.029,317.008,304.029z M376.949,304.029c-3.962,0-7.587,1.619-10.209,4.254    c-2.611,2.609-4.239,6.234-4.239,10.197v106.233h28.915V318.48c0-3.891-1.572-7.467-4.1-10.076l-0.154-0.121    C384.551,305.648,380.926,304.029,376.949,304.029z M376.949,298.085c5.619,0,10.732,2.296,14.418,5.993l0.179,0.193    c3.579,3.673,5.801,8.699,5.801,14.209v106.233h17.905V250.599H98.875v174.115h17.905V318.48c0-5.606,2.295-10.705,5.984-14.402    c3.685-3.697,8.784-5.993,14.414-5.993c5.608,0,10.704,2.296,14.403,5.993l0.183,0.193c3.586,3.673,5.812,8.699,5.812,14.209    v106.233h19.137V318.48c0-5.606,2.295-10.705,5.995-14.402c3.709-3.697,8.809-5.993,14.403-5.993    c5.629,0,10.729,2.296,14.414,5.993l0.183,0.193c3.576,3.673,5.801,8.699,5.801,14.209v106.233h19.162V318.48    c0-5.606,2.295-10.705,5.98-14.402c3.699-3.697,8.798-5.993,14.417-5.993c5.619,0,10.719,2.296,14.403,5.993l0.179,0.193    c3.591,3.673,5.813,8.699,5.813,14.209v106.233h19.151V318.48c0-5.606,2.299-10.705,5.983-14.402    c3.695-3.697,8.795-5.993,14.414-5.993c5.618,0,10.718,2.296,14.413,5.993l0.183,0.193c3.576,3.673,5.801,8.699,5.801,14.209    v106.233h19.152V318.48c0-5.606,2.295-10.705,5.99-14.402C366.235,300.381,371.331,298.085,376.949,298.085z M80.436,437.884    h353.245v-7.226c-117.747,0-235.484,0-353.245,0V437.884z M442.549,443.829c-123.656,0-247.314,0-370.982,0v19.573h370.982    V443.829z M82.622,160.436c1.305,1.111,2.344,2.514,3.007,4.156c2.092,0.411,3.977,1.451,5.44,2.925    c1.643,1.644,2.766,3.843,3.057,6.283c1.776,0.507,3.369,1.45,4.65,2.729c1.934,1.935,3.145,4.617,3.145,7.564    c0,2.853-1.137,5.462-2.973,7.371l-0.172,0.217c-1.931,1.935-4.626,3.143-7.588,3.143H48.151c-2.951,0-5.632-1.208-7.566-3.143    c-1.944-1.957-3.141-4.639-3.141-7.588c0-1.354,0.267-2.705,0.761-3.938l0.084-0.218c0.337-0.82,0.796-1.595,1.33-2.296    l-0.049-1.015c0-3.189,1.271-6.114,3.324-8.265l0.204-0.218c2.176-2.175,5.183-3.528,8.507-3.528h0.544    c0.449-2.417,1.632-4.615,3.324-6.307c2.2-2.175,5.194-3.528,8.507-3.528c2.088,0,4.082,0.556,5.822,1.498    c1.014,0.58,1.934,1.281,2.744,2.102l0.253-0.071c0.955-0.267,1.934-0.411,2.899-0.411    C78.333,157.898,80.751,158.865,82.622,160.436z M341.995,50.844c0.712-1.837,1.874-3.455,3.349-4.713    c2.042-1.715,4.688-2.755,7.563-2.755c1.074,0,2.137,0.146,3.166,0.435l0.494,0.146c0.92-0.966,2.008-1.812,3.18-2.465    c1.895-1.038,4.057-1.644,6.366-1.644c3.626,0,6.925,1.499,9.304,3.867c1.934,1.934,3.264,4.446,3.709,7.25l0.931-0.025    c3.64,0,6.925,1.475,9.304,3.867c2.394,2.393,3.878,5.68,3.878,9.305l-0.07,1.231c0.614,0.798,1.147,1.692,1.544,2.635    c0.594,1.426,0.92,2.972,0.92,4.543c0,3.214-1.306,6.138-3.433,8.265c-2.103,2.127-5.036,3.432-8.265,3.432h-48.487    c-3.215,0-6.138-1.305-8.265-3.432c-2.116-2.103-3.433-5.025-3.433-8.265c0-3.214,1.306-6.138,3.422-8.265    c1.449-1.45,3.274-2.514,5.313-3.045c0.281-2.756,1.513-5.244,3.373-7.104C337.488,52.463,339.615,51.303,341.995,50.844z     M95.902,244.654h322.323h0.088h12.564v-20.372h-33.13h-0.085H116.468h-0.084H83.24v20.372h12.578H95.902z M170.574,195.742    c0,1.619-1.327,2.973-2.973,2.973c-1.632,0-2.973-1.354-2.973-2.973c0-17.326,4.773-33.518,13.038-47.341    c8.581-14.354,20.941-26.173,35.646-34.073c1.439-0.774,3.25-0.242,4.012,1.207c0.772,1.426,0.228,3.238-1.197,4.012    c-13.786,7.42-25.363,18.463-33.372,31.875C175.02,164.352,170.574,179.479,170.574,195.742z M257.064,109.253    c-1.646,0-2.972-1.329-2.972-2.973s1.326-2.973,2.972-2.973c25.518,0,48.632,10.344,65.354,27.066s27.069,39.85,27.069,65.368    c0,1.619-1.33,2.973-2.963,2.973c-1.643,0-2.973-1.354-2.973-2.973c0-23.875-9.689-45.504-25.338-61.164    C302.569,118.943,280.94,109.253,257.064,109.253z M358.476,110.461c-1.222-1.111-1.306-2.973-0.204-4.181    c1.109-1.233,2.984-1.306,4.191-0.218c14.512,13.268,27.346,30.957,36.092,49.274c8.457,17.689,13.146,36.056,11.963,51.667    c-0.122,1.643-1.547,2.875-3.179,2.755c-1.629-0.121-2.851-1.547-2.73-3.19c1.102-14.572-3.359-31.875-11.382-48.67    C384.793,140.258,372.443,123.221,358.476,110.461z M51.752,475.027c-1.646,0-2.973-1.329-2.973-2.973    c0-1.619,1.327-2.973,2.973-2.973h292.72c1.643,0,2.973,1.354,2.973,2.973c0,1.644-1.33,2.973-2.973,2.973H51.752z     M223.16,485.999c-1.642,0-2.972-1.33-2.972-2.973c0-1.644,1.33-2.973,2.972-2.973h202.558c1.643,0,2.973,1.329,2.973,2.973    c0,1.643-1.33,2.973-2.973,2.973H223.16z M446.452,485.999c-1.643,0-2.973-1.33-2.973-2.973c0-1.644,1.33-2.973,2.973-2.973    h25.324c1.632,0,2.973,1.329,2.973,2.973c0,1.643-1.341,2.973-2.973,2.973H446.452z M40.224,485.66    c-1.643,0-2.973-1.329-2.973-2.973c0-1.619,1.33-2.973,2.973-2.973h95.988c1.628,0,2.973,1.354,2.973,2.973    c0,1.644-1.344,2.973-2.973,2.973H40.224z M446.199,220.633c0-1.643,1.341-2.973,2.973-2.973c1.643,0,2.973,1.33,2.973,2.973    v39.874c0,1.644-1.33,2.972-2.973,2.972H436.52v111.333c0,1.644-1.33,2.973-2.972,2.973c-1.643,0-2.973-1.329-2.973-2.973V260.507    c0-1.644,1.33-2.972,2.973-2.972h12.651V220.633z M354.38,123.994c-24.251-24.263-57.514-39.512-94.343-40.285V57.756h24.599    c1.646,0,2.973-1.33,2.973-2.973V35.668c0-1.645-1.327-2.973-2.973-2.973h-24.599v-3.721c0-1.645-1.344-2.973-2.973-2.973    c-1.646,0-2.972,1.328-2.972,2.973v54.734c-36.829,0.773-70.095,16.022-94.346,40.285c-24.261,24.238-39.51,57.514-40.282,94.343    h275.201C393.879,181.508,378.641,148.232,354.38,123.994z" style="fill-rule:evenodd;clip-rule:evenodd;"/></g></g><g id="Layer_1"/></svg>