<svg width="141.732" height="141.732" xmlns="http://www.w3.org/2000/svg">

 <g>
  <title>background</title>
  <rect fill="none" id="canvas_background" height="402" width="582" y="-1" x="-1"/>
 </g>
 <g>
  <title>Layer 1</title>
  <path fill="#1c42a0" id="svg_1" d="m37.589725,88.423237c-19.746,0.414 -35.769,13.786 -37.164,30.658l18.693,0l0.009,-0.104c0.9,-10.901 6.48,-21.019 15.712,-28.487c0.891,-0.719 1.809,-1.409 2.75,-2.067m7.456,-33.717c0,-2.408 0.255,-4.747 0.731,-6.98c-2.211,-1.199 -4.662,-1.872 -7.244,-1.872c-9.761,0 -17.673,9.526 -17.673,21.279c0,11.395 7.437,20.695 16.78,21.253c4.202,-2.928 8.886,-5.22 13.868,-6.815c1.054,-1.366 1.952,-2.902 2.681,-4.568c-5.56,-5.18 -9.143,-13.248 -9.143,-22.297m48.375,-0.253c0,-14.909 -10.037,-26.994 -22.417,-26.994c-12.381,0 -22.417,12.085 -22.417,26.994c0,13.36 8.063,24.457 18.651,26.61c-23.855,1.586 -42.865,18.11 -44.574,38.776l96.68,0c-1.71,-20.666 -20.719,-37.19 -44.576,-38.775c10.588,-2.154 18.653,-13.248 18.653,-26.611m27.725,13.442c0,-11.753 -7.912,-21.28 -17.674,-21.28c-2.583,0 -5.031,0.676 -7.243,1.872c0.479,2.233 0.729,4.573 0.729,6.98c0,9.05 -3.582,17.117 -9.144,22.293c0.726,1.666 1.627,3.202 2.678,4.571c4.984,1.596 9.667,3.888 13.868,6.813c9.351,-0.555 16.786,-9.856 16.786,-21.249m20.436,51.947c-1.396,-16.872 -17.418,-30.243 -37.164,-30.657c0.94,0.657 1.857,1.346 2.749,2.066c9.23,7.469 14.812,17.586 15.713,28.484l0.009,0.104l18.693,0.003l0,0z"/>
 </g>
</svg>