<svg width="32" height="32" xmlns="http://www.w3.org/2000/svg">
 <title/>
 <desc/>

 <g>
  <title>background</title>
  <rect fill="none" id="canvas_background" height="402" width="582" y="-1" x="-1"/>
 </g>
 <g>
  <title>Layer 1</title>
  <path fill="#0939f9" id="clipboard-list" d="m13,5l0,-1.00209c0,-1.09965 0.89762,-1.99791 2.00488,-1.99791l0.99024,0c1.11098,0 2.00488,0.8945 2.00488,1.99791l0,1.00209l2.00442,0c0.55074,0 0.99558,0.44725 0.99558,0.99896l0,1.00208c0,0.5563 -0.44574,0.99896 -0.99558,0.99896l-9.00884,0c-0.55074,0 -0.99558,-0.44725 -0.99558,-0.99896l0,-1.00208c0,-0.5563 0.44574,-0.99896 0.99558,-0.99896l2.00442,0l0,0zm8.99999,1l1.00259,0c1.10649,0 1.99742,0.89704 1.99742,2.00359l0,20.99282c0,1.11383 -0.89428,2.00359 -1.99742,2.00359l-15.00516,0c-1.10649,0 -1.99742,-0.89704 -1.99742,-2.00359l0,-20.99282c0,-1.11383 0.89428,-2.00359 1.99742,-2.00359l1.00259,0c-0.00001,0.00163 -0.00001,0.00325 -0.00001,0.00488l0,0.99024c0,1.10726 0.89354,2.00488 2.00276,2.00488l8.99448,0c1.10609,0 2.00276,-0.8939 2.00276,-2.00488l0,-0.99024c0,-0.00163 0,-0.00325 -0.00001,-0.00488l0,0l0,0zm-6.49999,-1c0.27614,0 0.5,-0.22386 0.5,-0.5c0,-0.27614 -0.22386,-0.5 -0.5,-0.5c-0.27614,0 -0.5,0.22386 -0.5,0.5c0,0.27614 0.22386,0.5 0.5,0.5l0,0zm-1.5,9l0,1l8,0l0,-1l-8,0l0,0zm-5,-1l0,3l3,0l0,-3l-3,0l0,0zm1,1l0,1l1,0l0,-1l-1,0l0,0zm-1,4l0,3l3,0l0,-3l-3,0l0,0zm1,1l0,1l1,0l0,-1l-1,0l0,0zm4,0l0,1l8,0l0,-1l-8,0l0,0zm-5,4l0,3l3,0l0,-3l-3,0l0,0zm1,1l0,1l1,0l0,-1l-1,0l0,0zm4,0l0,1l8,0l0,-1l-8,0l0,0z"/>
 </g>
</svg>