<svg width="512" height="512" xmlns="http://www.w3.org/2000/svg">

 <g>
  <title>background</title>
  <rect fill="none" id="canvas_background" height="402" width="582" y="-1" x="-1"/>
 </g>
 <g>
  <title>Layer 1</title>
  <path fill="#2b1edb" id="svg_2" fill-rule="evenodd" clip-rule="evenodd" d="m342.555,117.723l69.225,0l-69.225,-69.195l0,69.195zm74.134,6.979l-77.623,0c-1.93,0 -3.488,-1.562 -3.488,-3.49l0,-77.649l-221.857,0l0,14.129l0,337.295c100.997,0 201.997,0 302.968,0l0,-270.285zm-21.791,277.236l-284.665,0c-1.93,0 -3.492,-1.561 -3.492,-3.463l0,-337.209l-14.81,0l0,11.404l0,340.02c101,0 202,0 302.968,0l0,-10.752l-0.001,0zm-17.701,17.703l-288.755,0c-1.93,0 -3.488,-1.562 -3.488,-3.49l0,-339.905l-10.725,0l0,351.423l302.968,0l0,-8.028zm-45.76,-224.382c-16.94,-16.937 -40.373,-27.434 -66.217,-27.434c-25.876,0 -49.281,10.497 -66.217,27.434c-16.965,16.937 -27.434,40.372 -27.434,66.216c0,25.875 10.469,49.309 27.406,66.246c16.937,16.937 40.37,27.406 66.246,27.406c25.787,0 49.136,-10.385 66.045,-27.236l0.172,-0.17c16.937,-16.966 27.435,-40.371 27.435,-66.246c-0.002,-25.844 -10.5,-49.28 -27.436,-66.216zm-66.217,-34.413c27.773,0 52.937,11.291 71.151,29.477c18.186,18.214 29.477,43.379 29.477,71.152c0,27.804 -11.291,52.969 -29.477,71.154l-0.229,0.227c-18.182,18.072 -43.262,29.25 -70.923,29.25c-27.774,0 -52.941,-11.264 -71.155,-29.477c-18.211,-18.215 -29.477,-43.379 -29.477,-71.154c0,-27.773 11.266,-52.91 29.477,-71.124c18.186,-18.214 43.353,-29.505 71.156,-29.505zm76.714,95.381l-47.919,-27.122l0,6.554l40.202,22.754c0.564,0.312 1.049,0.766 1.389,1.361c0.938,1.674 0.341,3.801 -1.305,4.737l-40.286,22.81l0,6.554l47.919,-27.15l0,-10.498zm-49.481,-35.973l54.671,30.951c1.134,0.625 1.759,1.816 1.759,3.008l0.027,14.553c0,1.391 -0.82,2.582 -2.014,3.15l-54.668,30.923c-1.646,0.966 -3.776,0.37 -4.738,-1.305c-0.313,-0.538 -0.456,-1.134 -0.456,-1.702l0,-14.554c0,-1.391 0.825,-2.582 2.015,-3.149l36.457,-20.625l-36.713,-20.795c-1.105,-0.625 -1.759,-1.816 -1.759,-3.008l0,-14.555c0,-1.929 1.562,-3.488 3.492,-3.488c0.709,0 1.362,0.227 1.927,0.596zm-109.166,30.951l54.696,-30.951c0.54,-0.369 1.221,-0.596 1.93,-0.596c1.93,0 3.488,1.56 3.488,3.488l0,14.555c-0.028,1.191 -0.653,2.383 -1.786,3.008l-36.713,20.795l36.484,20.625c1.193,0.567 2.015,1.759 2.015,3.149l0,14.554c-0.028,0.568 -0.168,1.164 -0.481,1.702c-0.937,1.675 -3.063,2.271 -4.738,1.305l-54.643,-30.923c-1.19,-0.568 -2.015,-1.76 -2.015,-3.15l0,-14.553c0.001,-1.192 0.654,-2.383 1.763,-3.008zm53.137,-22.101l-47.918,27.122l0,10.497l47.918,27.15l0,-6.554l-40.285,-22.81c-1.674,-0.937 -2.243,-3.063 -1.306,-4.737c0.34,-0.596 0.821,-1.05 1.39,-1.361l40.201,-22.754l0,-6.553zm44.939,-22.583c0.621,-1.787 2.607,-2.751 4.425,-2.099c1.814,0.651 2.752,2.639 2.099,4.454l-38.811,107.58c-0.653,1.788 -2.639,2.725 -4.425,2.1c-1.814,-0.652 -2.751,-2.639 -2.099,-4.453l38.811,-107.582zm-239.759,243.219c-1.93,0 -3.492,-1.56 -3.492,-3.488s1.562,-3.49 3.492,-3.49l307.278,0c1.93,0 3.488,1.562 3.488,3.49s-1.559,3.488 -3.488,3.488l-307.278,0zm179.926,18.698c-1.93,0 -3.492,-1.561 -3.492,-3.49c0,-1.929 1.562,-3.489 3.492,-3.489l212.633,0c1.931,0 3.492,1.561 3.492,3.489c0,1.93 -1.562,3.49 -3.492,3.49l-212.633,0zm234.396,0c-1.931,0 -3.492,-1.561 -3.492,-3.49c0,-1.929 1.562,-3.489 3.492,-3.489l26.581,0c1.93,0 3.492,1.561 3.492,3.489c0,1.93 -1.563,3.49 -3.492,3.49l-26.581,0zm-426.436,-0.568c-1.93,0 -3.488,-1.562 -3.488,-3.49s1.558,-3.49 3.488,-3.49l100.772,0c1.898,0 3.488,1.562 3.488,3.49s-1.59,3.49 -3.488,3.49l-100.772,0z"/>
 </g>
</svg>