<svg width="64" height="64" xmlns="http://www.w3.org/2000/svg">

 <g>
  <title>background</title>
  <rect fill="none" id="canvas_background" height="402" width="582" y="-1" x="-1"/>
 </g>
 <g>
  <title>Layer 1</title>
  <path id="svg_2" fill="#0939f9" d="m46,31l0,-1l9.148,0c0.297,0.732 1.013,1.25 1.852,1.25c1.104,0 2,-0.896 2,-2s-0.896,-2 -2,-2c-1.019,0 -1.851,0.765 -1.975,1.75l-9.025,0l0,-1l-2,0l0,-2l2,0l0,-1l2.651,0l3,-2l3.497,0c0.297,0.732 1.013,1.25 1.852,1.25c1.104,0 2,-0.896 2,-2s-0.896,-2 -2,-2c-1.019,0 -1.851,0.765 -1.975,1.75l-3.677,0l-3,2l-2.348,0l0,-1l-2,0l0,-3l-3,0l0,-2l-1,0l0,-1.833l3,-4l0,-2.738c0.861,-0.223 1.5,-0.999 1.5,-1.929c0,-1.104 -0.896,-2 -2,-2s-2,0.896 -2,2c0,0.93 0.639,1.706 1.5,1.929l0,2.404l-3,4l0,2.167l-1,0l0,2l-2,0l0,-2l-1,0l0,-3.845l2,-2.917l0,-1.809c0.861,-0.223 1.5,-0.999 1.5,-1.929c0,-1.104 -0.896,-2 -2,-2s-2,0.896 -2,2c0,0.93 0.639,1.706 1.5,1.929l0,1.5l-2,2.917l0,4.154l-1,0l0,2l-2,0l0,-2l-1,0l0,-6.571c0.861,-0.223 1.5,-0.999 1.5,-1.929c0,-1.104 -0.896,-2 -2,-2s-2,0.896 -2,2c0,0.93 0.639,1.706 1.5,1.929l0,6.571l-1,0l0,2l-2,0l0,-2l-1,0l0,-3.207l-2,-2l0,-3.364c0.861,-0.223 1.5,-0.999 1.5,-1.929c0,-1.104 -0.896,-2 -2,-2s-2,0.896 -2,2c0,0.93 0.639,1.706 1.5,1.929l0,3.778l2,2l0,2.793l-1,0l0,2l-3,0l0,3l-2,0l0,1l-1.599,0l-3,-2l-3.676,0c-0.124,-0.985 -0.956,-1.75 -1.975,-1.75c-1.104,0 -2,0.896 -2,2s0.896,2 2,2c0.838,0 1.554,-0.518 1.852,-1.25l3.497,0l3,2l1.901,0l0,1l2,0l0,2l-2,0l0,1l-9.275,0c-0.124,-0.985 -0.956,-1.75 -1.975,-1.75c-1.104,0 -2,0.896 -2,2s0.896,2 2,2c0.838,0 1.554,-0.518 1.852,-1.25l9.398,0l0,1l2,0l0,2l-2,0l0,1l-5.275,0c-0.124,-0.985 -0.956,-1.75 -1.975,-1.75c-1.104,0 -2,0.896 -2,2s0.896,2 2,2c0.838,0 1.554,-0.518 1.852,-1.25l5.398,0l0,1l2,0l0,2l-2,0l0,1l-2.901,0l-3,2l-3.374,0c-0.124,-0.985 -0.956,-1.75 -1.975,-1.75c-1.104,0 -2,0.896 -2,2s0.896,2 2,2c0.838,0 1.554,-0.518 1.852,-1.25l3.8,0l3,-2l2.598,0l0,1l2,0l0,3l3,0l0,2l1,0l0,2.333l-3,4l0,2.737c-0.861,0.223 -1.5,0.999 -1.5,1.929c0,1.104 0.896,2 2,2s2,-0.896 2,-2c0,-0.93 -0.639,-1.706 -1.5,-1.929l0,-2.404l3,-4l0,-2.666l1,0l0,-2l2,0l0,2l1,0l0,4.345l-2,2.917l0,1.809c-0.861,0.223 -1.5,0.999 -1.5,1.929c0,1.104 0.896,2 2,2s2,-0.896 2,-2c0,-0.93 -0.639,-1.706 -1.5,-1.929l0,-1.5l2,-2.917l0,-4.654l1,0l0,-2l2,0l0,2l1,0l0,7.071c-0.861,0.223 -1.5,0.999 -1.5,1.929c0,1.104 0.896,2 2,2s2,-0.896 2,-2c0,-0.93 -0.639,-1.706 -1.5,-1.929l0,-7.071l1,0l0,-2l2,0l0,2l1,0l0,3.707l2,2l0,3.364c-0.861,0.223 -1.5,0.999 -1.5,1.929c0,1.104 0.896,2 2,2s2,-0.896 2,-2c0,-0.93 -0.639,-1.706 -1.5,-1.929l0,-3.778l-2,-2l0,-3.293l1,0l0,-2l3,0l0,-3l2,0l0,-1l3.293,0l2,2l3.855,0c0.297,0.732 1.013,1.25 1.852,1.25c1.104,0 2,-0.896 2,-2s-0.896,-2 -2,-2c-1.019,0 -1.851,0.765 -1.975,1.75l-3.318,0l-2,-2l-3.707,0l0,-1l-2,0l0,-2l2,0l0,-1l5.148,0c0.297,0.732 1.013,1.25 1.852,1.25c1.104,0 2,-0.896 2,-2s-0.896,-2 -2,-2c-1.019,0 -1.851,0.765 -1.975,1.75l-5.025,0l0,-1l-2,0l0,-2l2,0zm11,-2.75c0.552,0 1,0.448 1,1s-0.448,1 -1,1s-1,-0.448 -1,-1s0.448,-1 1,-1zm0,-7c0.552,0 1,0.448 1,1s-0.448,1 -1,1s-1,-0.448 -1,-1s0.448,-1 1,-1zm-13,2.75l1,0l0,1l-1,0l0,-1zm-2.5,-16.5c0,-0.552 0.448,-1 1,-1s1,0.448 1,1s-0.448,1 -1,1s-1,-0.448 -1,-1zm-6,0c0,-0.552 0.448,-1 1,-1s1,0.448 1,1s-0.448,1 -1,1s-1,-0.448 -1,-1zm-7,2c0,-0.552 0.448,-1 1,-1s1,0.448 1,1s-0.448,1 -1,1s-1,-0.448 -1,-1zm-7,-2c0,-0.552 0.448,-1 1,-1s1,0.448 1,1s-0.448,1 -1,1s-1,-0.448 -1,-1zm-13.75,15.75c-0.552,0 -1,-0.448 -1,-1s0.448,-1 1,-1s1,0.448 1,1s-0.448,1 -1,1zm-1,7c-0.552,0 -1,-0.448 -1,-1s0.448,-1 1,-1s1,0.448 1,1s-0.448,1 -1,1zm4,5c-0.552,0 -1,-0.448 -1,-1s0.448,-1 1,-1s1,0.448 1,1s-0.448,1 -1,1zm-4,7c-0.552,0 -1,-0.448 -1,-1s0.448,-1 1,-1s1,0.448 1,1s-0.448,1 -1,1zm13.25,-2.25l-1,0l0,-1l1,0l0,1zm0,-5l-1,0l0,-1l1,0l0,1zm0,-5l-1,0l0,-1l1,0l0,1zm0,-5l-1,0l0,-1l1,0l0,1zm2.5,32c0,0.552 -0.448,1 -1,1s-1,-0.448 -1,-1s0.448,-1 1,-1s1,0.448 1,1zm6,0c0,0.552 -0.448,1 -1,1s-1,-0.448 -1,-1s0.448,-1 1,-1s1,0.448 1,1zm7,-2c0,0.552 -0.448,1 -1,1s-1,-0.448 -1,-1s0.448,-1 1,-1s1,0.448 1,1zm7,2c0,0.552 -0.448,1 -1,1s-1,-0.448 -1,-1s0.448,-1 1,-1s1,0.448 1,1zm-3.5,-38l1,0l0,1l-1,0l0,-1zm-5,0l1,0l0,1l-1,0l0,-1zm-5,0l1,0l0,1l-1,0l0,-1zm-5,0l1,0l0,1l-1,0l0,-1zm1,26l-1,0l0,-1l1,0l0,1zm5,0l-1,0l0,-1l1,0l0,1zm5,0l-1,0l0,-1l1,0l0,1zm5,0l-1,0l0,-1l1,0l0,1zm3,-2l-22,0l0,-22l22,0l0,22zm14,-2.75c0.552,0 1,0.448 1,1s-0.448,1 -1,1s-1,-0.448 -1,-1s0.448,-1 1,-1zm-12,-1.25l0,1l-1,0l0,-1l1,0zm8,-5.75c0.552,0 1,0.448 1,1s-0.448,1 -1,1s-1,-0.448 -1,-1s0.448,-1 1,-1zm-8,0.75l0,1l-1,0l0,-1l1,0zm-1,-5l1,0l0,1l-1,0l0,-1z"/>
  <path id="svg_3" fill="#0937ed" d="m41,23l-18,0l0,18l18,0l0,-18zm-1,17l-16,0l0,-16l16,0l0,16z"/>
  <rect id="svg_4" y="30" x="28.55" width="9.899" transform="matrix(-0.7071,0.7071,-0.7071,-0.7071,78.7548,28.3787) " height="1" fill="#0b39ef"/>
  <rect id="svg_5" y="31.5" x="24.757" width="8.485" transform="matrix(-0.7071,0.7071,-0.7071,-0.7071,72.1335,34.1213) " height="1" fill="#0b39ef"/>
 </g>
</svg>