<?xml version="1.0"?>
<svg xmlns="http://www.w3.org/2000/svg" xmlns:xlink="http://www.w3.org/1999/xlink" version="1.1" viewBox="0 0 224 224" width="128px" height="128px"><g fill="none" fill-rule="nonzero" stroke="none" stroke-width="1" stroke-linecap="butt" stroke-linejoin="miter" stroke-miterlimit="10" stroke-dasharray="" stroke-dashoffset="0" font-family="none" font-weight="none" font-size="none" text-anchor="none" style="mix-blend-mode: normal"><path d="M0,224v-224h224v224z" fill="none"/><g fill="#ffffff"><path d="M108.5,7c-28.2695,0 -54.52984,11.34984 -73.94434,31.96484c-35.623,37.821 -36.5523,97.89243 -2.1123,136.75293c10.22,11.529 22.53311,20.37919 36.59961,26.30469c1.281,0.539 2.6442,0.79981 4.0127,0.79981c1.5085,0 3.02285,-0.3232 4.42285,-0.9707c2.6985,-1.2565 4.74064,-3.61462 5.61914,-6.45312l14.61523,-47.20215c1.47,-4.753 -0.50312,-9.93152 -4.70312,-12.31152c-10.3075,-5.831 -16.43042,-16.7924 -15.98242,-28.6084c0.6125,-16.2155 14.3068,-29.7937 30.5293,-30.2627c8.5505,-0.2765 16.73005,2.90856 22.89355,8.89356c6.1635,5.985 9.54981,14.00727 9.54981,22.59277c0,11.3435 -6.16596,21.85362 -16.08496,27.43262c-4.158,2.338 -6.12144,7.43695 -4.66895,12.12695l14.65625,47.33887c0.8785,2.842 2.93098,5.19313 5.62598,6.45313c2.667,1.239 5.73721,1.3014 8.42871,0.1709c14.0665,-5.922 26.37961,-14.77569 36.59961,-26.30469c34.4365,-38.8605 33.51069,-98.93193 -2.11231,-136.75293c-19.4145,-20.615 -45.67484,-31.96484 -73.94434,-31.96484zM108.5,14c26.32,0 50.76723,10.57317 68.84473,29.76367c33.166,35.2135 34.03225,91.13984 1.96875,127.31934c-9.5165,10.7345 -20.98365,18.97733 -34.07715,24.48633c-0.889,0.371 -1.86939,0.34814 -2.75489,-0.06836c-0.91,-0.4235 -1.59955,-1.21833 -1.89355,-2.17383l-3.03516,-9.80273c30.8945,-11.949 51.44727,-41.64491 51.44727,-75.02441c0,-24.367 -10.86619,-47.15982 -29.80469,-62.52832c-1.498,-1.218 -3.70038,-0.99564 -4.92187,0.50586c-1.218,1.5015 -0.98881,3.70737 0.51269,4.92188c17.297,14.0385 27.21387,34.85459 27.21387,57.10059c0,30.3135 -18.56406,57.30353 -46.51856,68.33203l-9.5498,-30.84375c-0.483,-1.5575 0.11987,-3.22651 1.42188,-3.95801c12.1205,-6.8145 19.64648,-19.65977 19.64648,-33.53027c0,-10.493 -4.14728,-20.30219 -11.67578,-27.61719c-7.5285,-7.3115 -17.43065,-11.13864 -27.97265,-10.86914c-19.831,0.581 -36.57522,17.1791 -37.32422,36.9961c-0.546,14.4445 6.93728,27.84332 19.53028,34.96582c1.3545,0.77 1.97373,2.51491 1.46972,4.14941l-14.61523,47.20898c-0.294,0.952 -0.99039,1.74349 -1.90039,2.16699c-0.8855,0.4165 -1.86588,0.44286 -2.75488,0.06836c-13.0935,-5.509 -24.56065,-13.75183 -34.07715,-24.48633c-32.06,-36.1795 -31.19725,-92.10234 1.96875,-127.31934c18.081,-19.1905 42.53156,-29.76367 68.85156,-29.76367zM106.96875,28.02051c-20.62047,0.41816 -40.6041,8.7663 -55.3916,23.55664c-9.072,9.0755 -15.6713,19.81366 -19.6123,31.93066c-0.5985,1.8375 0.40469,3.81752 2.24219,4.41602c0.3605,0.1155 0.71958,0.1709 1.08008,0.1709c1.4735,0 2.8461,-0.93959 3.3291,-2.41309c3.6015,-11.0565 9.63249,-20.86727 17.91699,-29.15527c16.6215,-16.6145 40.42675,-24.32068 63.65625,-20.59668c1.897,0.315 3.69786,-0.98744 4.00586,-2.89844c0.301,-1.9075 -0.99427,-3.7082 -2.90527,-4.0127c-4.77094,-0.76584 -9.56272,-1.09455 -14.32129,-0.99805zM135.30371,32.85352c-1.36254,0.05791 -2.62423,0.90978 -3.13086,2.26953c-0.6755,1.813 0.24128,3.83288 2.05078,4.50489c2.4815,0.9275 4.95463,2.00539 7.34864,3.21289c0.5075,0.2555 1.04026,0.37598 1.57227,0.37598c1.281,0 2.51486,-0.6994 3.13086,-1.9209c0.8715,-1.7185 0.18058,-3.83162 -1.54492,-4.70312c-2.625,-1.323 -5.32973,-2.50551 -8.05273,-3.52051c-0.4515,-0.16888 -0.91984,-0.23805 -1.37402,-0.21875zM31.98535,101.78711c-1.911,-0.077 -3.57273,1.3801 -3.67773,3.3086c-0.105,1.9285 1.37326,3.57607 3.30176,3.68457l6.99316,0.36914c0.063,0.0035 0.12157,0.00684 0.18457,0.00684c1.848,0 3.39166,-1.44993 3.49316,-3.31543c0.1015,-1.932 -1.37326,-3.57607 -3.30176,-3.68457zM40.83789,119.98438c-0.44707,-0.08679 -0.91941,-0.09204 -1.39453,0.00684l-6.84961,1.44922c-1.8935,0.399 -3.1027,2.26625 -2.7002,4.15625c0.35,1.6485 1.8043,2.77539 3.4248,2.77539c0.238,0 0.47961,-0.02619 0.72461,-0.07519l6.84961,-1.44922c1.89,-0.406 3.09919,-2.26625 2.70019,-4.15625c-0.29925,-1.4175 -1.41367,-2.44666 -2.75488,-2.70703zM45.84863,136.72559c-0.45385,0.03139 -0.90847,0.15127 -1.33984,0.36914l-6.24121,3.17188c-1.722,0.875 -2.40625,2.98796 -1.53125,4.70996c0.6195,1.2145 1.84652,1.91406 3.12402,1.91406c0.532,0 1.07844,-0.12731 1.58594,-0.38281l6.23438,-3.17187c1.722,-0.8785 2.41309,-2.98446 1.53809,-4.70996c-0.65625,-1.28887 -2.00856,-1.99456 -3.37012,-1.90039zM56.36231,151.41602c-0.89469,-0.04856 -1.81005,0.24292 -2.5293,0.88867l-5.20898,4.68262c-1.4385,1.2915 -1.55127,3.50738 -0.25977,4.94238c0.6895,0.77 1.64549,1.16211 2.60449,1.16211c0.833,0 1.66939,-0.29701 2.33789,-0.89551l5.20898,-4.68262c1.4385,-1.2915 1.55127,-3.50738 0.25977,-4.94238c-0.644,-0.7175 -1.5184,-1.10671 -2.41309,-1.15527zM70.32813,163.05078c-1.34318,-0.2392 -2.76035,0.3185 -3.54785,1.53125l-3.82129,5.86523c-1.0535,1.6205 -0.59844,3.78968 1.01856,4.84668c0.588,0.3815 1.25273,0.56739 1.90723,0.56739c1.1445,0 2.26745,-0.55694 2.93945,-1.58594l3.82129,-5.87207c1.0535,-1.6205 0.59161,-3.78284 -1.02539,-4.83984c-0.40512,-0.2625 -0.84427,-0.43296 -1.29199,-0.51269z"/></g></g></svg>
