<svg xmlns="http://www.w3.org/2000/svg" viewBox="0 0 198.821 198.821">
  <defs>
    <style>
      .cls-1 {
        fill: none;
        stroke: #fff;
        stroke-width: 11px;
      }

      .cls-2 {
        fill: #fff;
      }
    </style>
  </defs>
  <g id="hackathons" transform="translate(5.5 5.5)">
    <circle id="Ellipse_4" data-name="Ellipse 4" class="cls-1" cx="93.91" cy="93.91" r="93.91" transform="translate(0 0)"/>
    <path id="Path_38" data-name="Path 38" class="cls-2" d="M747.809,556.965s1.409,10.2-7.766,10.2H727.381L723.643,583a2.953,2.953,0,0,1-3.552,2.2l-.625-.148a2.949,2.949,0,0,1-2.2-3.55l4.386-18.58a2.954,2.954,0,0,1,2.554-2.254,3.03,3.03,0,0,1,.425-.035h10.269a12.774,12.774,0,0,1-1.348-5.47V548.9l6.485-5.233s2.989-2.381,1.113-5.534a4.627,4.627,0,0,0-4.226-2.444v-.965s8.67-1.141,9.276,6.724l1.611,15.526" transform="translate(-609.454 -454.068)"/>
    <path id="Path_39" data-name="Path 39" class="cls-2" d="M738.3,546.495a2.7,2.7,0,0,1-.446,3.794l-6.435,5.071a5,5,0,0,1-2.186.775l-10.753-.031a2.7,2.7,0,1,1,.014-5.4l10.069.028,5.94-4.684a2.7,2.7,0,0,1,3.8.451" transform="translate(-608.29 -462.336)"/>
    <path id="Path_40" data-name="Path 40" class="cls-2" d="M764.915,475.82a6.745,6.745,0,1,1-6.745,6.745,6.745,6.745,0,0,1,6.745-6.745" transform="translate(-640.811 -409.039)"/>
    <path id="Path_41" data-name="Path 41" class="cls-2" d="M634.785,599.577v1.047a1.688,1.688,0,0,1-1.69,1.69H602.93a1.69,1.69,0,0,1-1.69-1.69v-.906h1.643a1.531,1.531,0,0,0,1.448,1.026H631.69a1.526,1.526,0,0,0,1.489-1.174h1.606" transform="translate(-520.724 -503.736)"/>
    <path id="Path_42" data-name="Path 42" class="cls-2" d="M634.785,481.318V498.17h-1.564V482.72a1.524,1.524,0,0,0-1.531-1.517H604.337a1.524,1.524,0,0,0-1.533,1.517v15.591H601.24V481.318a1.688,1.688,0,0,1,1.69-1.688h30.164a1.688,1.688,0,0,1,1.69,1.688" transform="translate(-520.724 -411.955)"/>
    <path id="Path_43" data-name="Path 43" class="cls-2" d="M682.86,554.984h8.217V553.69H682.86Z" transform="translate(-583.182 -468.627)"/>
    <path id="Path_44" data-name="Path 44" class="cls-2" d="M682.86,541.234h8.217V539.94H682.86Z" transform="translate(-583.182 -458.106)"/>
    <path id="Path_45" data-name="Path 45" class="cls-2" d="M690.025,499.794l1,4.275H682.81V495.5l2.348,4.285,1.864-1.261,1.491,2.688,1.491-1.43" transform="translate(-583.143 -424.099)"/>
    <path id="Path_46" data-name="Path 46" class="cls-2" d="M662.043,539.093h-4.3v-4.3a4.3,4.3,0,0,1,4.3,4.3" transform="translate(-563.959 -454.165)"/>
    <path id="Path_47" data-name="Path 47" class="cls-2" d="M638.014,540.055h5.059A5.062,5.062,0,1,1,638.015,535v5.059" transform="translate(-544.989 -454.325)"/>
    <path id="Path_48" data-name="Path 48" class="cls-2" d="M621.93,520.546h10.685V519.41H621.93Z" transform="translate(-536.557 -442.396)"/>
    <path id="Path_49" data-name="Path 49" class="cls-2" d="M621.93,510.086h10.685V508.95H621.93Z" transform="translate(-536.557 -434.391)"/>
    <path id="Path_50" data-name="Path 50" class="cls-2" d="M621.93,500.866h10.685V499.73H621.93Z" transform="translate(-536.557 -427.336)"/>
    <path id="Path_51" data-name="Path 51" class="cls-2" d="M558.714,553.38a2.7,2.7,0,0,1-2.7,2.712l-10.75.031a2.721,2.721,0,0,1-1.207-.282,2.678,2.678,0,0,1-.979-.493l-6.438-5.076a2.7,2.7,0,0,1,3.348-4.245l5.938,4.684L556,550.683a2.7,2.7,0,0,1,2.712,2.7" transform="translate(-470.507 -462.319)"/>
    <path id="Path_52" data-name="Path 52" class="cls-2" d="M532.828,581.473a2.951,2.951,0,0,1-2.2,3.55l-.625.148a2.951,2.951,0,0,1-3.552-2.2l-3.735-15.833H510.055c-9.17,0-7.766-10.2-7.766-10.2l1.613-15.526c.606-7.865,9.274-6.724,9.274-6.724v.967a4.624,4.624,0,0,0-4.226,2.444c-1.878,3.153,1.113,5.534,1.113,5.534l6.482,5.247v6.25a12.773,12.773,0,0,1-1.348,5.47h10.271a3.048,3.048,0,0,1,.425.035,2.949,2.949,0,0,1,2.552,2.254l4.388,18.59" transform="translate(-444.945 -454.045)"/>
    <path id="Path_53" data-name="Path 53" class="cls-2" d="M541.257,475.82a6.745,6.745,0,1,1-6.747,6.746,6.745,6.745,0,0,1,6.747-6.746" transform="translate(-469.661 -409.039)"/>
  </g>
</svg>
