<svg xmlns="http://www.w3.org/2000/svg" viewBox="0 0 326.619 142.28">
  <g id="_2k_users" data-name="2k users" transform="translate(-360 -936)">
    <path id="Path_92" data-name="Path 92" d="M1155.073-260.406c-26.119,0-55.428,22.741-65.016,55.325H1248.1c-9.586-32.584-38.9-55.325-65.016-55.325Z" transform="translate(-645.771 1283.345)"/>
    <path id="Path_93" data-name="Path 93" d="M1141.314,528.472a42.145,42.145,0,1,1-42.145-42.153A42.148,42.148,0,0,1,1141.314,528.472Z" transform="translate(-575.862 449.681)"/>
    <path id="Path_95" data-name="Path 95" d="M1454.981,1101.992c-8.56,0-17.56,3.115-25.682,8.6a87.282,87.282,0,0,1,18.7,33.533,4.511,4.511,0,0,1,.174,1.271h79.794c-7.521-25.567-30.518-43.407-51.011-43.407h-21.979Z" transform="translate(-841.353 -67.12)"/>
    <path id="Path_96" data-name="Path 96" d="M895.513,414.645a33.068,33.068,0,1,1-33.068-33.073A33.071,33.071,0,0,1,895.513,414.645Z" transform="translate(-237.819 585.07)"/>
    <path id="Path_98" data-name="Path 98" d="M51.011,1101.987c-20.494,0-43.491,17.841-51.011,43.406H79.789a4.512,4.512,0,0,1,.179-1.271,87.282,87.282,0,0,1,18.7-33.533c-8.124-5.488-17.123-8.6-25.682-8.6H51.012Z" transform="translate(360 -67.115)"/>
    <path id="Path_99" data-name="Path 99" d="M895.513,414.645a33.068,33.068,0,1,1-33.068-33.073A33.071,33.071,0,0,1,895.513,414.645Z" transform="translate(-440.441 585.07)"/>
  </g>
</svg>
